<?xml version="1.0" encoding="UTF-8" standalone="no"?>
<svg
   xmlns:dc="http://purl.org/dc/elements/1.1/"
   xmlns:cc="http://creativecommons.org/ns#"
   xmlns:rdf="http://www.w3.org/1999/02/22-rdf-syntax-ns#"
   xmlns:svg="http://www.w3.org/2000/svg"
   xmlns="http://www.w3.org/2000/svg"
   xmlns:sodipodi="http://sodipodi.sourceforge.net/DTD/sodipodi-0.dtd"
   xmlns:inkscape="http://www.inkscape.org/namespaces/inkscape"
   width="541.88574"
   height="228.90758"
   viewBox="-262.3653 -234.75089 541.88574 228.90758"
   version="1.1"
   id="svg3568"
   sodipodi:docname="graph_schema.svg"
   inkscape:version="0.92.3 (2405546, 2018-03-11)">
  <metadata
     id="metadata3574">
    <rdf:RDF>
      <cc:Work
         rdf:about="">
        <dc:format>image/svg+xml</dc:format>
        <dc:type
           rdf:resource="http://purl.org/dc/dcmitype/StillImage" />
        <dc:title>Neo4j Graph Visualization</dc:title>
      </cc:Work>
    </rdf:RDF>
  </metadata>
  <defs
     id="defs3572" />
  <sodipodi:namedview
     pagecolor="#ffffff"
     bordercolor="#666666"
     borderopacity="1"
     objecttolerance="10"
     gridtolerance="10"
     guidetolerance="10"
     inkscape:pageopacity="0"
     inkscape:pageshadow="2"
     inkscape:window-width="1853"
     inkscape:window-height="1025"
     id="namedview3570"
     showgrid="false"
     fit-margin-top="0"
     fit-margin-left="0"
     fit-margin-right="0"
     fit-margin-bottom="0"
     inkscape:zoom="1.1094779"
     inkscape:cx="196.59602"
     inkscape:cy="140.17377"
     inkscape:window-x="67"
     inkscape:window-y="27"
     inkscape:window-maximized="1"
     inkscape:current-layer="g3566" />
  <title
     id="title3398">Neo4j Graph Visualization</title>
  <desc
     id="desc3400">Created using Neo4j (http://www.neo4j.com/)</desc>
  <g
     class="layer relationships"
     id="g3444"
     transform="translate(-3.0000042,-255.3193)">
    <g
       class="relationship"
       transform="rotate(20.729904,-286.66362,185.77025)"
       id="g3406">
      <path
         class="outline"
         d="m 38.507624,10.835725 0.258819,-0.9659261 a 103.70431,103.70431 0 0 0 14.624779,2.8116401 l -0.117795,0.993038 A 104.70431,104.70431 0 0 1 38.507624,10.835725 Z m 43.044667,2.34646 -0.152288,-0.988336 A 103.70431,103.70431 0 0 0 95.918058,8.8748771 L 95.04121,6.0058812 102.75852,7.307065 97.087188,12.700205 96.21034,9.8312091 A 104.70431,104.70431 0 0 1 81.552291,13.182185"
         id="path3402"
         inkscape:connector-curvature="0"
         style="fill:#a5abb6;stroke:none" />
      <text
         pointer-events="none"
         font-size="8px"
         x="67.420853"
         y="16.887651"
         id="text3404"
         style="font-size:8px;font-family:sans-serif;text-anchor:middle;fill:#000000">Target</text>
    </g>
    <g
       class="relationship"
       transform="rotate(-4.3986928,1575.1894,1368.3368)"
       id="g3412">
      <path
         class="outline"
         d="m 24.018736,6.953439 0.258819,-0.9659258 a 171.31123,171.31123 0 0 0 16.856034,3.618476 L 40.973165,10.593037 A 172.31123,172.31123 0 0 1 24.018736,6.953439 Z m 60.742911,5.113283 -0.0937,-0.9956 A 171.31123,171.31123 0 0 0 101.72912,8.5941168 l -0.57987,-2.9434243 7.54451,2.0809565 -6.19147,4.787034 -0.57988,-2.9434248 A 172.31123,172.31123 0 0 1 84.761647,12.066722"
         id="path3408"
         inkscape:connector-curvature="0"
         style="fill:#a5abb6;stroke:none" />
      <text
         pointer-events="none"
         font-size="8px"
         x="62.837193"
         y="15.227585"
         id="text3410"
         style="font-size:8px;font-family:sans-serif;text-anchor:middle;fill:#000000">Generated</text>
    </g>
    <g
       class="relationship"
       transform="rotate(-20.846369,332.08875,-71.538211)"
       id="g3418">
      <path
         class="outline"
         d="m 40,0.5 h 16.066933 v -1 H 40 Z m 71.42631,0 h 16.06693 v 3 l 7,-3.5 -7,-3.5 v 3 h -16.06693 z"
         id="path3414"
         inkscape:connector-curvature="0"
         style="fill:#a5abb6;stroke:none" />
      <text
         pointer-events="none"
         font-size="8px"
         x="83.74662"
         y="3"
         id="text3416"
         style="font-size:8px;font-family:sans-serif;text-anchor:middle;fill:#000000">hasMotivation</text>
    </g>
    <g
       class="relationship"
       transform="rotate(-6.5881687,1101.3403,2097.3919)"
       id="g3424">
      <path
         class="outline"
         d="m 25,0.5 h 13.457907 v -1 H 25 Z m 63.485251,0 h 13.457909 v 3 l 7,-3.5 -7,-3.5 v 3 H 88.485251 Z"
         id="path3420"
         inkscape:connector-curvature="0"
         style="fill:#a5abb6;stroke:none" />
      <text
         pointer-events="none"
         font-size="8px"
         x="63.471581"
         y="3"
         id="text3422"
         style="font-size:8px;font-family:sans-serif;text-anchor:middle;fill:#000000">isAgentType</text>
    </g>
    <g
       class="relationship"
       transform="rotate(35.640894,-163.43732,336.83981)"
       id="g3430">
      <path
         class="outline"
         d="m 25,0.5 h 12.83877 v -1 H 25 Z m 41.959864,0 h 12.83877 v 3 l 7,-3.5 -7,-3.5 v 3 h -12.83877 z"
         id="path3426"
         inkscape:connector-curvature="0"
         style="fill:#a5abb6;stroke:none" />
      <text
         pointer-events="none"
         font-size="8px"
         x="52.399319"
         y="3"
         id="text3428"
         style="font-size:8px;font-family:sans-serif;text-anchor:middle;fill:#000000">isType</text>
    </g>
    <g
       class="relationship"
       transform="rotate(20.729904,-286.66362,185.77025)"
       id="g3436">
      <path
         class="outline"
         d="m 38.507624,-10.835725 0.258819,0.9659261 a 103.70431,103.70431 0 0 1 16.603454,-3.0271181 l -0.09871,-0.995116 a 104.70431,104.70431 0 0 0 -16.763558,3.056308 z m 41.055695,-2.633419 -0.133292,0.991077 a 103.70431,103.70431 0 0 1 16.488031,3.6031899 l -0.876848,2.8689959 7.71731,-1.3011838 -5.671332,-5.39314 -0.876848,2.8689959 A 104.70431,104.70431 0 0 0 79.563319,-13.469144"
         id="path3432"
         inkscape:connector-curvature="0"
         style="fill:#a5abb6;stroke:none" />
      <text
         pointer-events="none"
         font-size="8px"
         x="67.420853"
         y="-10.887651"
         id="text3434"
         style="font-size:8px;font-family:sans-serif;text-anchor:middle;fill:#000000">Body</text>
    </g>
    <g
       class="relationship"
       transform="rotate(-4.3986928,1575.1894,1368.3368)"
       id="g3442">
      <path
         class="outline"
         d="m 24.018736,-6.953439 0.258819,0.9659258 a 171.31123,171.31123 0 0 1 21.463573,-4.3031778 l -0.133529,-0.991045 a 172.31123,172.31123 0 0 0 -21.588863,4.328297 z m 56.07266,-5.488836 -0.0666,0.99778 a 171.31123,171.31123 0 0 1 21.704324,2.8503782 l -0.57987,2.9434243 7.54451,-2.0809565 -6.19147,-4.787034 -0.57988,2.9434248 A 172.31123,172.31123 0 0 0 80.091396,-12.442275"
         id="path3438"
         inkscape:connector-curvature="0"
         style="fill:#a5abb6;stroke:none" />
      <text
         pointer-events="none"
         font-size="8px"
         x="62.837193"
         y="-9.2275848"
         id="text3440"
         style="font-size:8px;font-family:sans-serif;text-anchor:middle;fill:#000000">Created</text>
    </g>
  </g>
  <g
     class="layer nodes"
     id="g3566"
     transform="translate(-3.0000042,-255.3193)">
    <g
       class="node"
       transform="translate(203.25856,54.068414)"
       id="g3500">
      <circle
         class="outline"
         cx="0"
         cy="0"
         r="32.5"
         id="circle3494"
         style="fill:#da7194;stroke:#cc3c6c;stroke-width:2px" />
      <text
         pointer-events="none"
         dy="2.03125"
         font-size="32.5"
         id="text3496"
         style="font-size:32.5px;font-family:sans-serif;text-anchor:middle;fill:#ffffff" />
      <text
         pointer-events="none"
         y="5"
         font-size="10px"
         id="text3498"
         style="font-size:10px;font-family:sans-serif;text-anchor:middle;fill:#ffffff">MOTIVATION</text>
    </g>
    <g
       class="node"
       transform="translate(165.66337,158.33057)"
       id="g3508">
      <circle
         class="outline"
         cx="0"
         cy="0"
         r="25"
         id="circle3502"
         style="fill:#f79767;stroke:#f36924;stroke-width:2px" />
      <text
         pointer-events="none"
         dy="1.5625"
         font-size="25"
         id="text3504"
         style="font-size:25px;font-family:sans-serif;text-anchor:middle;fill:#ffffff" />
      <text
         pointer-events="none"
         y="5"
         font-size="10px"
         id="text3506"
         style="font-size:10px;font-family:sans-serif;text-anchor:middle;fill:#ffffff">OBJECT</text>
    </g>
    <g
       class="node"
       transform="translate(-100.30663,124.8416)"
       id="g3524">
      <circle
         class="outline"
         cx="0"
         cy="0"
         r="25"
         id="circle3518"
         style="fill:#569480;stroke:#447666;stroke-width:2px" />
      <text
         pointer-events="none"
         dy="1.5625"
         font-size="25"
         id="text3520"
         style="font-size:25px;font-family:sans-serif;text-anchor:middle;fill:#ffffff" />
      <text
         pointer-events="none"
         y="5"
         font-size="10px"
         id="text3522"
         style="font-size:10px;font-family:sans-serif;text-anchor:middle;fill:#ffffff">AGENT</text>
    </g>
    <g
       class="node"
       transform="translate(47.19703,113.4952)"
       id="g3548">
      <circle
         class="outline"
         cx="0"
         cy="0"
         r="40"
         id="circle3542"
         style="fill:#ffc454;stroke:#d7a013;stroke-width:2px" />
      <text
         pointer-events="none"
         dy="2.5"
         font-size="40"
         id="text3544"
         style="font-size:40px;font-family:sans-serif;text-anchor:middle;fill:#604a0e" />
      <text
         pointer-events="none"
         y="5"
         font-size="10px"
         id="text3546"
         style="font-size:10px;font-family:sans-serif;text-anchor:middle;fill:#604a0e">ANNOTATION</text>
    </g>
    <g
       class="node"
       transform="translate(-233.36529,140.20917)"
       id="g3556">
      <circle
         class="outline"
         cx="0"
         cy="0"
         r="25"
         id="circle3550"
         style="fill:#8dcc93;stroke:#5db665;stroke-width:2px" />
      <text
         pointer-events="none"
         dy="1.5625"
         font-size="25"
         id="text3552"
         style="font-size:25px;font-family:sans-serif;text-anchor:middle;fill:#604a0e" />
      <text
         pointer-events="none"
         y="5"
         font-size="10px"
         id="text3554"
         style="font-size:10px;font-family:sans-serif;text-anchor:middle;fill:#604a0e">AGENT…</text>
    </g>
    <g
       class="node"
       transform="translate(256.52045,223.47598)"
       id="g3564">
      <circle
         class="outline"
         cx="0"
         cy="0"
         r="25"
         id="circle3558"
         style="fill:#57c7e3;stroke:#23b3d7;stroke-width:2px" />
      <text
         pointer-events="none"
         dy="1.5625"
         font-size="25"
         id="text3560"
         style="font-size:25px;font-family:sans-serif;text-anchor:middle;fill:#ffffff" />
      <text
         pointer-events="none"
         y="5"
         font-size="10px"
         id="text3562"
         style="font-size:10px;font-family:sans-serif;text-anchor:middle;fill:#ffffff">TYPE</text>
    </g>
  </g>
</svg>
