<svg xmlns="http://www.w3.org/2000/svg" xmlns:xlink="http://www.w3.org/1999/xlink" version="1.1" x="0px" y="0px" viewBox="0 0 100 125" enable-background="new 0 0 100 100" xml:space="preserve"><g><path d="M73.313,84.355h-1.314l-0.679,6.684l3.175-4.427c0.372-0.518,0.451-1.075,0.218-1.531   C74.477,84.62,73.966,84.355,73.313,84.355z"/><path d="M28.397,84.355c-0.654,0-1.165,0.266-1.402,0.728c-0.234,0.455-0.155,1.013,0.215,1.529l3.187,4.443l-0.681-6.7H28.397z"/><path d="M72.735,54.617l-9.572-2.516c-2.012-0.528-4.409-1.672-4.409-4.127v-0.486c2.985,1.684,5.791,2.335,11.997,1.265   c-9.717-8.812,10.342-38.314-7.949-38.981c-0.406-0.041-0.796-0.062-1.18-0.076c-2.633-4.217-9.023-7.621-21.229-5.23   c-18.607,3.645-3.802,32.354-11.662,44.453c5.801,0.718,8.794,0.371,12.515-1.791v0.96c0,2.456-2.398,3.6-4.41,4.128l-9.573,2.516   c-4.139,1.088-6.92,4.604-6.92,8.748v15.285l0.532,0.138c2.779,0.716,5.608,1.313,8.472,1.815l-1.045-10.283   c-0.131-1.286,0.258-2.504,1.094-3.43c0.832-0.92,1.995-1.428,3.276-1.428h36.378c1.279,0,2.441,0.507,3.271,1.426   c0.836,0.925,1.225,2.144,1.094,3.432L72.4,80.404c2.268-0.436,4.512-0.934,6.725-1.503l0.532-0.138V63.366   C79.657,59.221,76.875,55.705,72.735,54.617z M38.368,36.597c-0.488-1.709-0.897-3.278-1.252-4.801l-0.092-0.397l-0.391-0.119   c-0.982-0.3-1.696-1.487-1.696-2.823c0-0.886,0.304-1.714,0.833-2.271l0.15-0.158l0.035-0.216c0.093-0.569,0.155-0.979,0.197-1.313   c9.012-0.295,19.701-3.362,24.144-11.582c-0.079,3.953,1.686,6.288,4.21,7.783c0.003,0.124,0.01,0.239,0.013,0.364   c0.039,1.914,0.006,2.11-0.104,2.765c-0.062,0.372-0.146,0.879-0.254,1.848l-0.035,0.316l0.213,0.236   c0.503,0.558,0.791,1.369,0.791,2.227c0,1.279-0.648,2.424-1.576,2.782l-0.348,0.134l-0.087,0.362   c-0.4,1.675-0.892,3.292-1.46,4.808c-1.021,2.722-2.387,4.85-4.063,6.326c-2.283,1.666-5.017,3.36-8.019,3.36   c-0.003,0-0.005,0-0.008,0c-2.32-0.001-4.658-1.571-7.132-3.232l-0.303-0.204C40.397,41.276,39.095,39.147,38.368,36.597z    M50,60.064c-4.9-1.878-7.914-4.598-9.924-7.689c1.674-1.052,2.587-2.511,2.587-4.289v-3.235c2.291,1.512,4.507,2.794,6.906,2.796   c0.003,0,0.006,0,0.009,0c2.919,0,5.521-1.347,7.758-2.863v3.19c0,1.795,0.932,3.266,2.64,4.319   C57.966,55.42,54.942,58.17,50,60.064z"/><path d="M69.049,67.703H32.671c-0.672,0-1.275,0.258-1.698,0.727c-0.428,0.473-0.625,1.108-0.556,1.789l1.437,14.137l0.939,9.243   c0.15,1.479,1.283,2.728,2.473,2.728h31.18c1.192,0,2.327-1.249,2.478-2.728l0.939-9.243l1.437-14.137   c0.069-0.682-0.128-1.318-0.556-1.792C70.321,67.96,69.72,67.703,69.049,67.703z M50.858,85.129c-1.718,0-3.115-1.397-3.115-3.115   c0-1.717,1.397-3.114,3.115-3.114c1.717,0,3.114,1.397,3.114,3.114C53.973,83.731,52.575,85.129,50.858,85.129z"/></g><text x="0" y="115" fill="#000000" font-size="5px" font-weight="bold" font-family="'Helvetica Neue', Helvetica, Arial-Unicode, Arial, Sans-serif">Created by Nikita Kozin</text><text x="0" y="120" fill="#000000" font-size="5px" font-weight="bold" font-family="'Helvetica Neue', Helvetica, Arial-Unicode, Arial, Sans-serif">from the Noun Project</text></svg>