<?xml version="1.0" encoding="UTF-8" standalone="no"?>
<!-- Created with Inkscape (http://www.inkscape.org/) -->

<svg
   xmlns:svg="http://www.w3.org/2000/svg"
   xmlns="http://www.w3.org/2000/svg"
   version="1.1"
   width="480"
   height="338"
   id="svg2">
  <defs
     id="defs4" />
  <g
     transform="translate(-108.57143,-314.79074)"
     id="layer1">
    <path
       d="m 308.47687,625.23512 c -2.80181,-1.3812 -3.25,-2.11793 -3.25,-5.34237 0,-2.23513 0.81073,-4.77092 2.01468,-6.30149 1.98493,-2.52344 2.00606,-3.47382 1.43092,-64.38486 -0.37777,-40.00922 -0.97217,-63.26536 -1.68457,-65.90964 -0.66653,-2.47401 -1.92147,-4.4466 -3.18093,-5 -1.61576,-0.70995 -2.14859,-1.98532 -2.38691,-5.71333 -0.27344,-4.27752 -0.52331,-4.73064 -2.29798,-4.16738 -1.09515,0.34759 -2.57683,0.14593 -3.29263,-0.44813 -0.93965,-0.77983 -2.56611,1.76356 -5.85069,2.75207 -2.50208,0.75302 -5.07393,-1.4182 -5.71521,-1.81453 -1.40515,-0.86843 -6.05461,-0.13527 -7.7776,1.22643 -0.6825,0.53939 -3.15861,0.69314 -5.50247,0.34165 -3.78578,-0.56771 -4.37292,-0.38516 -5.25908,1.6351 -0.73839,1.68337 -1.9775,2.35512 -4.76986,2.58585 -3.41057,0.2818 -3.90004,0.008 -5.10395,-2.85528 l -1.33161,-3.16697 -0.64605,3.23027 c -0.35534,1.77666 -0.64775,4.18653 -0.64982,5.35528 -0.004,2.22437 -4.72083,12.38329 -7.05627,15.19734 -1.89622,2.2848 -3.08988,34.22185 -2.28821,61.22228 0.60968,20.53407 0.72805,21.48 3.31427,26.48496 2.40634,4.65686 3.10231,5.26209 6.7712,5.88842 4.89215,0.83515 15.99277,8.1453 17.54625,11.55483 0.81008,1.77792 0.80534,2.90531 -0.0178,4.2233 -0.93522,1.49752 -0.71705,1.98283 1.30572,2.90447 3.29488,1.50124 3.18769,4.91028 -0.19484,6.19631 -4.4978,1.71007 -14.09749,-0.86894 -26.62935,-7.15412 -17.76208,-8.9083 -24.0447,-19.91988 -29.03671,-50.89279 -4.00656,-24.85869 -4.72395,-31.36989 -4.71749,-42.81739 0.008,-13.85483 0.66597,-13.05462 -7.86517,-9.56282 -3.85322,1.57712 -21.17275,1.90506 -23.89145,0.45238 -0.955,-0.51031 -4.21139,-1.67155 -7.23639,-2.58054 -11.07792,-3.32883 -21.87954,-10.13462 -31.1768,-19.6436 -5.24465,-5.36409 -9.20019,-10.35251 -10,-12.61121 -0.84772,-2.39404 -3.29364,-8.58788 -3.29364,-17.23682 0,-12.93633 2.08561,-13.69591 4.72871,-18.19219 1.51705,-2.5807 5.21964,-7.1932 8.22797,-10.25 4.24271,-4.31106 6.1476,-5.55781 8.49172,-5.55781 4.00251,0 4.12121,3.23763 0.20355,5.55185 -1.55017,0.91571 -4.36267,3.92584 -6.25,6.68917 -3.33815,4.88756 -3.44063,5.33269 -3.76682,16.36127 -0.30083,10.17157 -0.0993,11.82845 1.96081,16.11737 2.54575,5.30007 8.88529,14.60288 9.5193,13.96887 0.223,-0.223 -0.56127,-2.60665 -1.74283,-5.29699 -1.83677,-4.18221 -2.16567,-6.9217 -2.26811,-18.89154 -0.16055,-18.75909 1.04316,-26.53323 4.36443,-28.18758 2.06457,-1.02838 2.75559,-0.98711 3.98045,0.23775 1.20469,1.20469 1.25182,1.85101 0.25171,3.45243 -0.76957,1.23228 -1.23045,5.88119 -1.23045,12.41167 0,10.97986 2.57617,23.42715 6.7659,32.69073 2.64886,5.8567 8.83983,12.83232 12.89128,14.52512 5.70971,2.38567 15.26195,1.73704 24.00632,-1.63012 4.28498,-1.65 8.25114,-3.00689 8.81369,-3.01531 2.70411,-0.0405 3.62261,-2.34034 4.9397,-12.36872 1.0632,-8.09524 2.01645,-11.67543 3.84476,-14.44 1.33707,-2.02178 3.92879,-6.15097 5.75938,-9.17597 1.83058,-3.025 4.34245,-6.625 5.58194,-8 1.23949,-1.375 3.40403,-4.80172 4.8101,-7.61492 1.40607,-2.81321 3.27123,-5.70811 4.1448,-6.43311 0.87357,-0.72499 2.44939,-3.00604 3.50183,-5.06899 1.05244,-2.06295 2.75002,-4.34305 3.77241,-5.0669 1.02239,-0.72384 2.49091,-2.50081 3.26339,-3.9488 2.45757,-4.6067 8.91889,-10.97609 12.72437,-12.54335 4.65016,-1.91513 8.18013,-5.14212 8.18013,-7.47801 0,-0.99299 0.65209,-3.50205 1.4491,-5.57568 0.797,-2.07363 1.94261,-5.69484 2.54579,-8.04713 0.82534,-3.21872 2.11215,-5.0125 5.20093,-7.25 3.66535,-2.65517 4.8898,-2.97311 11.44999,-2.97311 6.28517,0 8.43973,0.50532 14.92299,3.5 4.16749,1.925 7.91952,3.5 8.33784,3.5 0.41832,0 2.66203,-1.7554 4.98602,-3.9009 3.9698,-3.6649 7.20497,-5.19204 18.10734,-8.54742 13.44987,-4.13941 17.36977,-4.90123 27,-5.24733 8.79052,-0.31593 12.03657,0.0266 19.93794,2.1042 5.19087,1.36487 10.59087,3.42786 12,4.58441 1.40913,1.15656 4.71504,3.07713 7.34647,4.26794 2.98657,1.35153 4.98546,2.96617 5.31945,4.29688 0.35635,1.4198 2.32576,2.87398 5.8969,4.35413 2.94902,1.2223 6.94698,3.71734 8.88438,5.54453 2.8271,2.66634 4.8642,3.54706 10.3187,4.46137 6.5499,1.09791 12.0316,2.23309 27.5462,5.70431 9.5625,2.13953 39.2192,16.00484 50.75,23.72699 4.4402,2.97363 14.1584,11.04222 20.9923,17.42904 1.9292,1.80297 5.75767,4.79421 8.50767,6.64719 2.75,1.85298 6.1081,4.87782 7.4625,6.72186 1.3544,1.84404 4.0781,5.1528 6.0527,7.3528 3.9894,4.44477 7.2718,12.47149 11.8975,29.09408 3.3464,12.02535 3.7553,16.33961 1.8691,19.72166 -0.67,1.20134 -1.2325,3.75926 -1.25,5.68426 -0.028,3.04351 -0.3529,3.5 -2.4935,3.5 -2.4975,0 -3.3103,-1.05612 -6.5415,-8.5 -3.8587,-8.88976 -6.746,-13 -9.1319,-13 -3.0331,0 -2.9851,1.32041 0.1999,5.49617 2.724,3.57132 3.5021,8.83686 1.5887,10.75033 -0.6345,0.63442 -1.1535,2.20262 -1.1535,3.48488 0,1.28227 -0.675,2.59041 -1.5,2.90699 -1.9144,0.73463 -1.9087,2.80829 0.016,5.74553 1.1568,1.7656 1.3976,4.18485 1.0166,10.21481 -0.2745,4.34571 -0.7401,9.02629 -1.0346,10.40129 -1.0242,4.78227 4.1394,30.8421 8.5202,43 0.6936,1.925 2.9983,7.33221 5.1215,12.01602 2.1232,4.68382 3.8604,9.48917 3.8604,10.67857 0,1.18941 0.6732,2.83581 1.4961,3.65867 4.2337,4.23376 4.5889,11.54144 0.7539,15.5125 -3.6175,3.74576 -7.9902,4.44458 -22.4216,3.58324 -13.17367,-0.78627 -13.23677,-0.83393 -10.32837,-7.79476 2.52637,-6.04646 1.89717,-9.03686 -3.9702,-18.87182 -3.0085,-5.04297 -7.3081,-13.85489 -9.5545,-19.58203 -4.7982,-12.23274 -7.0268,-15.97696 -14.028,-23.56798 -5.5456,-6.0129 -7.7207,-6.82615 -9.7153,-3.63241 -0.6983,1.1182 -2.332,2 -3.7053,2 -2.8381,0 -3.7979,1.51968 -5.4745,8.66733 -0.6666,2.84203 -2.0761,5.94927 -3.1321,6.90499 -1.1227,1.01597 -1.9201,3.05153 -1.9201,4.90117 0,4.75188 -2.8823,13.61567 -5.5963,17.20979 -1.5445,2.0454 -2.4123,4.54758 -2.4276,7 -0.013,2.0992 -0.5268,5.61672 -1.1416,7.81672 -0.6148,2.2 -1.0336,6.75989 -0.9307,10.13309 0.284,9.30922 0.1592,9.36994 -19.2253,9.3516 -8.8982,-0.008 -16.6804,-0.34592 -17.2937,-0.75 -3.6821,-2.42568 -1.8074,-9.36313 3.0268,-11.2011 3.0432,-1.15701 3.5778,-3.95989 4.5837,-24.03359 0.4548,-9.075 1.3169,-18.07203 1.9158,-19.9934 0.5989,-1.92137 1.0889,-5.81008 1.0889,-8.64159 0,-4.68222 -0.2305,-5.20603 -2.546,-5.7872 -1.4003,-0.35145 -3.0612,-0.32059 -3.6909,0.0686 -0.6297,0.38916 -3.0982,0.60646 -5.4856,0.48288 -3.096,-0.16026 -5.0792,0.3562 -6.916,1.801 -2.6851,2.11208 -4.7186,4.21726 -7.2305,1.19061 -0.6625,-0.79825 -2.0904,-3.68276 -3.17311,-3.39962 -2.58253,0.67534 -4.67484,-1.15597 -5.47309,-4.79036 -0.76833,-3.49819 -2.22491,-3.81464 -3.01778,-0.65561 -0.31408,1.2514 -0.66015,12.40981 -0.76905,24.79645 l -0.19799,22.52117 4.28781,9.04914 c 5.02596,10.60693 5.98076,15.01706 3.86629,17.85795 -1.33858,1.79844 -2.86768,2.03319 -15.17264,2.32936 -16.37439,0.3941 -19.48148,-0.44333 -19.48148,-5.2507 0,-1.74827 0.50759,-3.68627 1.12797,-4.30665 0.8373,-0.8373 0.0935,-2.92229 -2.88642,-8.09085 -2.20792,-3.82959 -4.49163,-8.4745 -5.07491,-10.32203 -1.08106,-3.42423 -4.57512,-23.90927 -5.77523,-33.85915 -0.36486,-3.025 -1.22398,-6.625 -1.90915,-8 -0.68517,-1.375 -1.55595,-4.525 -1.93507,-7 -0.37913,-2.475 -1.33234,-7.74353 -2.11825,-11.70784 -0.78592,-3.96431 -1.49631,-10.03931 -1.57864,-13.5 -0.13179,-5.53897 -0.25349,-5.09513 -1.01672,3.70784 -1.03407,11.92674 -2.71464,23.2361 -3.8636,26 -0.45727,1.1 -1.02196,4.36706 -1.25487,7.26013 -0.23291,2.89307 -1.11257,6.04307 -1.95479,7 -0.84223,0.95693 -1.78287,3.31487 -2.09032,5.23987 -0.59889,3.74985 -1.88953,9.74791 -3.65798,17 -0.60354,2.475 -1.33433,6.75 -1.62397,9.5 -0.28965,2.75 -1.03006,6.02851 -1.64536,7.28558 -0.83341,1.70267 -0.81574,3.1235 0.0693,5.571 1.33132,3.68169 1.53509,8.59953 0.42271,10.20138 -2.60825,3.75594 -5.59086,4.44219 -19.2072,4.41927 -10.35296,-0.0174 -14.29018,-0.39875 -16.77749,-1.6249 z"
       id="path2996"
       style="fill:#000000" />
  </g>
</svg>
