<?xml version="1.0" encoding="UTF-8" standalone="no"?>
<svg xmlns:rdf="http://www.w3.org/1999/02/22-rdf-syntax-ns#" xmlns="http://www.w3.org/2000/svg" xml:space="preserve" height="127.85" viewBox="0 0 375.74945 127.85349" width="375.75" version="1.1" xmlns:cc="http://creativecommons.org/ns#" xmlns:dc="http://purl.org/dc/elements/1.1/"><defs><clipPath id="b" clipPathUnits="userSpaceOnUse"><path d="m54.515 193.84-0.107-0.428-0.437-0.062c-3.126-0.435-7.315-2.752-8.943-6.067-0.052-0.559-0.655-0.576-0.869-0.582-9.298-0.131-17.884-4.224-24.831-11.834-3.331-3.649-6.246-8.033-8.661-13.032-2.165-4.48-3.969-9.44-5.365-14.75-1.362-5.18-2.356-10.78-2.965-16.73-5.247-51.511 18.046-115.7 59.86-125.45l0.251-0.058 0.144-0.215c0.954-1.43 2.057-2.577 2.432-2.678 0.377 0.103 1.481 1.248 2.435 2.678l0.144 0.215 0.251 0.058c41.81 9.748 65.104 73.935 59.86 125.45-1.053 10.338-3.294 19.677-6.66 27.757l-0.54 1.273c-2.68 6.133-5.973 11.339-9.791 15.48-6.946 7.61-15.532 11.703-24.84 11.834-0.206 0.006-0.812 0.024-0.857 0.594-1.635 3.308-5.799 5.653-8.931 6.091l-0.438 0.062-0.105 0.431c-0.021 0.084-2.056 8.158-10.52 8.158-8.44 0-10.431-7.849-10.517-8.197"/></clipPath><radialGradient id="a" gradientUnits="userSpaceOnUse" cy="0" cx="0" gradientTransform="matrix(83.755 0 0 -83.755 65.025 102)" r="1"><stop stop-color="#fff" offset="0"/><stop stop-color="#fff" offset=".16564"/><stop stop-color="#d4ac7f" offset=".80109"/><stop stop-color="#d4ac7f" offset=".86503"/><stop stop-color="#d4ac7f" offset="1"/></radialGradient></defs><g transform="matrix(1.25 0 0 -1.25 -188.13 192.43)"><g style="" transform="matrix(.5 0 0 .5 150.76 51.755)"><g style=""><g style="" clip-path="url(#b)"><g style=""><g style=""><path d="m54.515 193.84-0.107-0.428-0.437-0.062c-3.126-0.435-7.315-2.752-8.943-6.067-0.052-0.559-0.655-0.576-0.869-0.582-9.298-0.131-17.884-4.224-24.831-11.834-3.331-3.649-6.246-8.033-8.661-13.032-2.165-4.48-3.969-9.44-5.365-14.75-1.362-5.18-2.356-10.78-2.965-16.73-5.247-51.511 18.046-115.7 59.86-125.45l0.251-0.058 0.144-0.215c0.954-1.43 2.057-2.577 2.432-2.678 0.377 0.103 1.481 1.248 2.435 2.678l0.144 0.215 0.251 0.058c41.81 9.748 65.104 73.935 59.86 125.45-1.053 10.338-3.294 19.677-6.66 27.757l-0.54 1.273c-2.68 6.133-5.973 11.339-9.791 15.48-6.946 7.61-15.532 11.703-24.84 11.834-0.206 0.006-0.812 0.024-0.857 0.594-1.635 3.308-5.799 5.653-8.931 6.091l-0.438 0.062-0.105 0.431c-0.021 0.084-2.056 8.158-10.52 8.158-8.44 0-10.431-7.849-10.517-8.197" fill="url(#a)"/></g></g></g></g><g><path d="m81.281 1.6465c-11.27 0.0525-13.781 10.756-13.781 10.756-4.6725 0.65-10.047 4.1233-11.996 8.3945l-0.26367-0.002c-12.012 0.17-22.843 5.4667-31.613 15.074-3.29 3.605-6.1159 7.5922-8.5234 11.836-2.5612 4.5162-4.6735 9.3156-6.416 14.203-1.655 4.6412-2.9758 9.3972-4.0195 14.211-1.1362 5.23-1.9463 10.53-2.4863 15.855-6.645 65.22 22.69 145.39 75.451 157.69 0.8025 1.2025 2.6397 3.6934 3.6484 3.6934 1.01 0 2.8466-2.4909 3.6504-3.6934 52.76-12.3 82.095-92.466 75.451-157.69-0.54125-5.325-1.3513-10.625-2.4863-15.855-1.045-4.8138-2.3665-9.5697-4.0215-14.211-1.7438-4.8875-3.8535-9.6869-6.416-14.203-2.4062-4.2438-5.2334-8.2309-8.5234-11.836-8.77-9.6075-19.601-14.904-31.613-15.074l-0.26172 0.002c-1.95-4.271-7.325-7.745-11.998-8.395 0 0-2.51-10.703-13.781-10.756zm0 2.5215c9.2675-0.00125 11.309 7.8738 11.324 7.9551-4.6062 0.3125-8.9018 3.1018-11.123 7.123-0.03375 0.06125-0.11492 0.26953-0.20117 0.26953-0.0975 0-0.16742-0.20828-0.20117-0.26953-2.22-4.0212-6.5148-6.8105-11.121-7.123 0.015-0.08125 2.056-7.9563 11.322-7.9551zm-11.769 10.381c2.1116 0.0618 4.3035 0.68398 6.4062 1.9805 2.225 1.3712 3.97 3.5348 4.5938 6.0723 0.18375 0.75 0.46828 1.1973 0.76953 1.1973 0.3025 0 0.58648-0.44727 0.77148-1.1973 0.62375-2.5375 2.368-4.701 4.5918-6.0723 6.7288-4.1488 14.359-1.4029 17.414 4.5684-1.56 0.265-2.9386 0.64774-4.8086 1.209-2.7125 0.935-4.9505 2.0812-6.8555 3.8125-4.2788 3.8875-8.067 9.9076-8.7695 17.58-1.9225 21.089 22.264 17.778 23.484 17.676 3.1262 0 5.4844-4.9223 5.4844-11.447 0-6.53-2.4231-11.453-5.4844-11.453-1.875 0-5.1167 1.4988-5.418 7.3438-0.21125 4.1062 1.7963 9.565 4.3926 9.9062 1.345 0.1775 2.5759-2.2027 2.9609-4.6152 0.34-2.0988 0.16406-5.3913-1.7109-5.8613-0.59-0.15-1.1879 0.21484-1.3379 0.80859-0.135 0.53625 1.1608 1.4497 1.1133 3.8672-0.075 3.61-3.7018 1.8069-3.2168-3.9219 0.43875-5.0838 3.0351-4.7606 3.1426-4.7656 1.4525 0 3.6387 3.0252 3.6387 8.6914 0 5.04-2.4345 10.465-7.082 7.6328-3.9138-2.8625-5.4582-9.452-4.377-14.551 0.4925-2.3412 2.5116-8.7109 9.0254-8.7109 9.3988 0 18.157 4.9388 25.145 14.125-0.76625 2.465-5.6096 11.83-21.006 20.795-0.33 0.1675-0.81625 0.44875-0.84375 0.4375-4.6975-1.9112-9.1048-3.103-14.229-2.8105-4.535 0.25875-8.9638 1.0886-13.375 2.1211-0.86875 0.20375-1.7579 0.43359-2.6504 0.43359s-1.7823-0.22984-2.6523-0.43359c-4.41-1.0325-8.8361-1.8623-13.371-2.1211-5.125-0.2925-9.5337 0.8993-14.232 2.8105-0.02625 0.01125-0.5118-0.27-0.8418-0.4375-15.396-8.965-20.241-18.33-21.006-20.795 6.9875-9.1862 15.748-14.125 25.146-14.125 6.5125 0 8.5309 6.3697 9.0234 8.7109 1.0825 5.0988-0.4632 11.688-4.377 14.551-4.6475 2.8325-7.082-2.5928-7.082-7.6328 0-5.6662 2.1881-8.6914 3.6406-8.6914 0.1075 0.005 2.7012-0.31812 3.1387 4.7656 0.48625 5.7288-3.1398 7.5319-3.2148 3.9219-0.0475-2.4175 1.2483-3.3309 1.1133-3.8672-0.15125-0.59375-0.74664-0.95859-1.3379-0.80859-1.8738 0.47-2.0522 3.7626-1.7109 5.8613 0.38375 2.4125 1.6159 4.7927 2.9609 4.6152 2.595-0.34125 4.6045-5.8 4.3945-9.9062-0.3025-5.845-3.5462-7.3438-5.4199-7.3438-3.0625 0-5.4863 4.9231-5.4863 11.453 0 6.525 2.3601 11.447 5.4863 11.447 1.2188 0.1025 25.406 3.413 23.484-17.676-0.7025-7.6725-4.4895-13.693-8.7695-17.58-1.905-1.7312-4.1442-2.8775-6.8555-3.8125-1.87-0.56125-3.2486-0.94398-4.8086-1.209 2.1003-4.1052 6.3622-6.6848 11.008-6.5488zm-13.695 8.9004c2.0162 0 6.901 0.31828 11.197 3.0195 4.7362 3.3662 8.8841 8.9493 9.6191 17.436 1.1388 13.022-12.135 15.078-14.736 15.055-0.39875-0.005-0.60641-0.37914 0.68359-1.7129 3.0512-3.9162 4.0459-9.9068 3.0234-14.717-1.2588-5.9788-5.4743-10.648-11.592-10.637-9.1512 0.015-17.326 4.603-23.406 11.23-5.9175 6.4512-9.9848 14.488-12.885 22.688-3.73 10.549-5.5977 21.67-6.3477 32.809-0.6875 10.22-0.39984 20.504 0.66016 30.687 1.0725 10.309 2.9486 20.539 5.6211 30.553 2.595 9.73 5.9431 19.277 10.172 28.42 4.2475 9.185 9.4184 18.09 15.805 26.018 6.41 7.9588 14.324 15.135 23.459 19.822 2.0588 1.0575 4.184 1.9867 6.3652 2.7617-0.12625 3.4025 0.74422 6.4321 1.918 8.9434-1.445-0.32375-1.4789-0.39492-2.6914-0.79492-5.9875-1.9725-11.696-4.8592-16.926-8.4492-3.32-2.2788-6.4538-4.8233-9.3613-7.5508-2.3912-2.2438-4.652-4.6266-6.7832-7.1191-1.4525-1.6988-2.8505-3.4434-4.1992-5.2246-6.4725-8.55-11.801-18.111-16.078-27.934-4.1338-9.4925-7.395-19.359-9.875-29.408-2.5362-10.27-4.2571-20.742-5.1621-31.281-0.8925-10.371-1.0573-20.872-0.19727-31.252 0.4625-5.5725 1.1298-11.132 2.1348-16.633 1-5.4712 2.3234-10.899 4.1172-16.166 1.6438-4.8288 3.62-9.5448 6.0625-14.027 2.4988-4.5825 5.4706-9.0023 9.0781-12.791 3.3637-3.5325 7.1398-6.6105 11.434-8.9492 1.7912-0.975 3.6535-1.8173 5.5723-2.5098 0.97375-0.35125 1.9609-0.6643 2.9609-0.93555 0.9075-0.24625 2.0503-0.62234 2.9766-0.74609 2.4325-0.45125 4.9059-0.60352 7.3809-0.60352zm50.93 0c2.4738 0 4.9491 0.15226 7.3828 0.60352 0.98375 0.13875 2.0678 0.49984 2.9766 0.74609 0.99875 0.27125 1.9872 0.5843 2.9609 0.93555 1.9175 0.6925 3.7803 1.5348 5.5703 2.5098 4.295 2.3388 8.0698 5.4167 11.434 8.9492 3.6062 3.7888 6.5806 8.2085 9.0781 12.791 2.4438 4.4825 4.4175 9.1986 6.0625 14.027 1.7925 5.2675 3.1172 10.695 4.1172 16.166 1.005 5.5012 1.6735 11.06 2.1348 16.633 0.86 10.38 0.69399 20.881-0.19727 31.252-0.90624 10.539-2.6271 21.011-5.1621 31.281-2.4812 10.049-5.7432 19.916-9.877 29.408-4.2775 9.8225-9.6037 19.384-16.076 27.934-1.3488 1.7812-2.7455 3.5259-4.1992 5.2246-2.1312 2.4925-4.392 4.8754-6.7832 7.1191-2.9062 2.7275-6.0401 5.272-9.3613 7.5508-5.23 3.59-10.938 6.4767-16.924 8.4492-1.2125 0.4-1.2503 0.47117-2.6953 0.79492 1.175-2.5112 2.0462-5.5409 1.9199-8.9434 2.1812-0.775 4.3052-1.7042 6.3652-2.7617 9.1338-4.6875 17.048-11.864 23.459-19.822 6.385-7.9275 11.557-16.833 15.805-26.018 4.2275-9.1425 7.5756-18.69 10.172-28.42 2.6712-10.014 4.5486-20.244 5.6211-30.553 1.06-10.184 1.3476-20.468 0.66015-30.687-0.75-11.139-2.6176-22.26-6.3476-32.809-2.8988-8.2-6.9653-16.236-12.883-22.688-6.08-6.6275-14.256-11.215-23.408-11.23-6.1162-0.01125-10.333 4.658-11.592 10.637-1.0225 4.81-0.02656 10.801 3.0234 14.717 1.2912 1.3338 1.0823 1.7079 0.6836 1.7129-2.6013 0.02375-15.877-2.0322-14.738-15.055 0.73625-8.4862 4.8841-14.069 9.6191-17.436 4.2962-2.7012 9.1817-3.0195 11.199-3.0195zm-78.689 26.5c1.3788 3.5825 7.411 12.539 21.322 20.703-11.824 7.1138-17.171 21.813-18.965 32.766-7.8587-0.6875-13.889-3.3254-16.729-4.8066 1.255-21.09 6.6098-37.637 14.371-48.662zm106.45 0c7.7625 11.025 13.119 27.572 14.375 48.662-2.84 1.4813-8.871 4.1191-16.729 4.8066-1.795-10.953-7.223-25.368-18.967-32.766 13.911-8.1638 19.943-17.121 21.32-20.703zm-120.92 50.361c3.1412 1.58 8.9938 3.9712 16.58 4.6387-0.5925 4.0338-0.82852 7.4253-0.91602 9.5391-0.315 7.6012 0.06273 15.272 1.1152 22.85 0.99625 7.17 2.5984 14.254 4.7871 21.115 2.985 9.3575 7.0824 18.337 11.92 26.877-4.9375 4.4912-12.337 6.2593-14.832 6.748-13.36-26.568-20.162-60.856-18.654-91.768zm135.38 0c1.5088 30.911-5.293 65.2-18.654 91.768-2.495-0.48875-9.8952-2.2568-14.834-6.748 4.8387-8.54 8.9369-17.519 11.922-26.877 2.1888-6.8612 3.7889-13.945 4.7852-21.115 1.0538-7.5775 1.4329-15.248 1.1191-22.85-0.0875-2.1138-0.32618-5.5053-0.91993-9.5391 7.5875-0.6675 13.442-3.0587 16.582-4.6387zm-101.1 86.39c8.8675 15.29 17.658 24.412 24.363 29.229-2.4288 6.16-8.1819 10.997-10.203 12.561-11.564-7.775-21.35-20.102-29.049-34.982 2.9612-0.60625 9.9124-2.4229 14.889-6.8066zm66.826 0c4.9762 4.3838 11.925 6.2004 14.885 6.8066-7.6975 14.88-17.481 27.207-29.045 34.982-2.0213-1.5638-7.7751-6.4006-10.205-12.561 6.7062-4.8162 15.498-13.939 24.365-29.229zm265.65 2.7285c-3.1462 0-5.5694 0.92383-7.2656 2.7676-1.6975 1.8462-2.5449 4.4891-2.5449 7.9316 0 3.4412 0.83929 6.0941 2.5293 7.9629 1.6862 1.8688 4.1057 2.8027 7.252 2.8027 3.11 0 5.5115-0.94047 7.209-2.8242 1.6962-1.8788 2.5449-4.5171 2.5449-7.9121 0-3.405-0.84836-6.0455-2.5371-7.918-1.6938-1.8725-4.0888-2.8106-7.1875-2.8106zm121.73 0c-3.1462 0-5.5676 0.92383-7.2676 2.7676-1.6938 1.8462-2.543 4.4891-2.543 7.9316 0 3.4412 0.84305 6.0941 2.5293 7.9629s4.1059 2.8027 7.2559 2.8027c3.1062 0 5.5113-0.94047 7.2051-2.8242 1.7-1.8788 2.5469-4.5171 2.5469-7.9121 0-3.405-0.84656-6.0455-2.5391-7.918-1.6938-1.8725-4.0888-2.8106-7.1875-2.8106zm208.06 0c-3.1462 0-5.5694 0.92383-7.2656 2.7676-1.6975 1.8462-2.5449 4.4891-2.5449 7.9316 0 3.4412 0.84305 6.0941 2.5293 7.9629 1.69 1.8688 4.1057 2.8027 7.252 2.8027 3.11 0 5.5152-0.94047 7.209-2.8242 1.6962-1.8788 2.5469-4.5171 2.5469-7.9121 0-3.405-0.84656-6.0455-2.5391-7.918-1.69-1.8725-4.0888-2.8106-7.1875-2.8106zm-402.41 0.0293c-2.085 0.00001-3.741 0.49985-4.9785 1.4961-1.2375 1-1.8535 2.3701-1.8535 4.1113 0 1.3862 0.38867 2.5764 1.1699 3.5664 0.7775 0.98875 2.1172 1.8687 4.0234 2.6387 1.8425 0.74 3.0591 1.3826 3.6504 1.9238 0.59125 0.54375 0.88281 1.203 0.88281 1.9805 0 0.865-0.32234 1.5553-0.96484 2.0703-0.6425 0.51-1.6344 0.76954-2.9844 0.76954-0.92375 0-1.9202-0.12672-2.9902-0.38672-1.0688-0.255-2.0807-0.60469-3.0332-1.0547v3.2227c1.5038 0.73375 3.4355 1.0996 5.793 1.0996 2.3575 0.00001 4.2081-0.52718 5.5469-1.5859 1.34-1.055 2.0117-2.5076 2.0117-4.3613 0-0.94125-0.16735-1.7574-0.4961-2.4512-0.33625-0.69375-0.85781-1.3179-1.5703-1.8691-0.715-0.55125-1.839-1.1464-3.3652-1.7852-1.3612-0.55875-2.3017-1.011-2.8242-1.3535-0.525-0.34375-0.89696-0.70555-1.127-1.0918-0.23-0.38375-0.34375-0.84688-0.34375-1.3906 0-0.78875 0.28743-1.4248 0.85743-1.9023 0.56875-0.4825 1.4048-0.72266 2.5098-0.72266 1.4538 0 3.1079 0.39063 4.9629 1.1719l1.082-2.7812c-1.9788-0.87625-3.9627-1.3145-5.959-1.3145zm155.46 0c-2.085 0.00001-3.7448 0.49985-4.9785 1.4961-1.2375 1-1.8555 2.3701-1.8555 4.1113 0 1.3862 0.38672 2.5764 1.168 3.5664 0.78125 0.98875 2.1209 1.8687 4.0234 2.6387 1.8462 0.74 3.0559 1.3826 3.6484 1.9238 0.59125 0.54375 0.88281 1.203 0.88281 1.9805 0 0.865-0.32024 1.5553-0.95899 2.0703-0.6425 0.51-1.6383 0.76954-2.9883 0.76954-0.92 0-1.9201-0.12672-2.9863-0.38672-1.0725-0.255-2.0807-0.60469-3.0332-1.0547v3.2227c1.5038 0.73375 3.4342 1.0996 5.793 1.0996 2.3575 0.00001 4.2031-0.52718 5.5469-1.5859 1.34-1.055 2.0078-2.5076 2.0078-4.3613 0-0.94125-0.1636-1.7574-0.4961-2.4512-0.33625-0.69375-0.85406-1.3179-1.5703-1.8691-0.715-0.55125-1.8352-1.1464-3.3652-1.7852-1.3575-0.55875-2.298-1.011-2.8242-1.3535-0.52125-0.34375-0.89875-0.70555-1.125-1.0918-0.23-0.38375-0.34375-0.84688-0.34375-1.3906 0-0.78875 0.28547-1.4248 0.85547-1.9023 0.56875-0.4825 1.4085-0.72266 2.5098-0.72266 1.4538 0 3.1098 0.39063 4.9648 1.1719l1.0801-2.7812c-1.975-0.87625-3.9626-1.3145-5.9551-1.3145zm19.846 0c-2.0212 0-3.7873 0.43579-5.291 1.3008-1.5 0.865-2.6489 2.1076-3.4414 3.7363-0.7925 1.6238-1.1914 3.5227-1.1914 5.6914 0 3.4412 0.81813 6.0861 2.4531 7.9336 1.635 1.85 3.98 2.7754 7.0312 2.7754 2.0738 0 3.9275-0.30648 5.5625-0.92773v-2.9238c-0.89375 0.2775-1.7551 0.50274-2.5801 0.67774-0.825 0.17625-1.6828 0.26367-2.5703 0.26367-2.0438 0-3.6074-0.6568-4.6836-1.9668-1.0775-1.3138-1.6172-3.2498-1.6172-5.8086 0-2.4412 0.55969-4.3566 1.6797-5.7441 1.125-1.39 2.6648-2.084 4.6211-2.084 0.86875 0 1.6934 0.12836 2.4746 0.38086 0.7875 0.25125 1.5294 0.54375 2.2344 0.875l1.2246-2.8398c-1.8075-0.89125-3.7738-1.3398-5.9062-1.3398zm63.16 0c-2.085 0.00001-3.7448 0.49985-4.9785 1.4961-1.2375 1-1.8555 2.3701-1.8555 4.1113 0 1.3862 0.38672 2.5764 1.168 3.5664 0.78125 0.98875 2.1209 1.8687 4.0234 2.6387 1.8462 0.74 3.0591 1.3826 3.6504 1.9238 0.59125 0.54375 0.88086 1.203 0.88086 1.9805 0 0.865-0.32024 1.5553-0.95899 2.0703-0.6425 0.51-1.6383 0.76954-2.9883 0.76954-0.92 0-1.9201-0.12672-2.9863-0.38672-1.0725-0.255-2.0807-0.60469-3.0332-1.0547v3.2227c1.5038 0.73375 3.4342 1.0996 5.793 1.0996 2.3575 0.00001 4.2044-0.52718 5.5469-1.5859 1.34-1.055 2.0078-2.5076 2.0078-4.3613 0-0.94125-0.1636-1.7574-0.4961-2.4512-0.33625-0.69375-0.85406-1.3179-1.5703-1.8691-0.715-0.55125-1.8352-1.1464-3.3652-1.7852-1.3575-0.55875-2.298-1.011-2.8242-1.3535-0.52125-0.34375-0.89875-0.70555-1.125-1.0918-0.23-0.38375-0.34375-0.84688-0.34375-1.3906 0-0.78875 0.28547-1.4248 0.85547-1.9023 0.56875-0.4825 1.4092-0.72266 2.5117-0.72266 1.4525 0 3.1079 0.39063 4.9629 1.1719l1.0801-2.7812c-1.975-0.87625-3.9626-1.3145-5.9551-1.3145zm144.2 0c-2.085 0.00001-3.741 0.49985-4.9785 1.4961-1.2375 1-1.8535 2.3701-1.8535 4.1113 0 1.3862 0.39062 2.5764 1.1719 3.5664 0.7775 0.98875 2.1151 1.8687 4.0176 2.6387 1.8462 0.74 3.063 1.3826 3.6543 1.9238 0.5875 0.54375 0.88281 1.203 0.88281 1.9805 0 0.865-0.32234 1.5553-0.96484 2.0703-0.6425 0.51-1.6344 0.76954-2.9844 0.76954-0.92375 0-1.9202-0.12672-2.9902-0.38672-1.0688-0.255-2.0806-0.60469-3.0293-1.0547v3.2227c1.5 0.73375 3.4316 1.0996 5.7891 1.0996 2.3575 0.00001 4.2101-0.52718 5.5488-1.5859 1.34-1.055 2.0098-2.5076 2.0098-4.3613 0-0.94125-0.1675-1.7574-0.5-2.4512-0.3325-0.69375-0.85391-1.3179-1.5664-1.8691-0.715-0.55125-1.8334-1.1464-3.3672-1.7852-1.3575-0.55875-2.2998-1.011-2.8223-1.3535-0.525-0.34375-0.89695-0.70555-1.127-1.0918-0.23-0.38375-0.34375-0.84688-0.34375-1.3906 0-0.78875 0.28562-1.4248 0.85937-1.9023 0.56875-0.4825 1.4034-0.72266 2.5059-0.72266 1.4562 0 3.1098 0.39063 4.9648 1.1719l1.084-2.7812c-1.9788-0.87625-3.9647-1.3145-5.9609-1.3145zm-52.289 0.2168-7.7988 20.936h3.5938l2.0371-5.7891h7.9746l2.082 5.7891h3.623l-7.8027-20.936h-3.709zm-424.27 0.082v20.854h3.0957v-10.84c0-1.4638-0.0662-3.0814-0.20117-4.8476l-0.0703-0.92774h0.11524l10.256 16.615h4.1738v-20.854h-3.123v10.926c0 0.77 0.0291 1.8425 0.0879 3.2188 0.0575 1.3725 0.094 2.168 0.11523 2.3867h-0.0859l-10.229-16.531h-4.1348zm23.516 0v20.854h3.4082v-20.854h-3.4082zm28.367 0v20.854h11.797v-2.8945h-8.3867v-6.5488h7.8613v-2.8496h-7.8613v-5.6758h8.3867v-2.8848h-11.797zm52.961 0v20.854h3.4082v-20.854h-3.4082zm7.2148 0v2.9238h6.1328v17.93h3.4082v-17.93h6.1309v-2.9238h-15.672zm69.301 0v20.854h3.3809v-8.5547h7.8555v-2.9004h-7.8555v-6.5137h8.3867v-2.8848h-11.768zm21.834 0 2.7383 10.414 2.6953 10.439h3.709l3.4492-12.381c0.14625-0.475 0.32086-1.1967 0.53711-2.168 0.215-0.9675 0.36984-1.759 0.46484-2.3652 0.0463 0.3975 0.18407 1.1096 0.41407 2.1309 0.22625 1.0225 0.41656 1.8039 0.57031 2.3476l3.5371 12.436h3.7051l5.4375-20.854h-3.4531l-2.9668 12.125c-0.545 2.0988-0.88289 3.8289-1.0254 5.1914-0.3725-2.2525-0.72234-3.9469-1.0586-5.0781l-3.4785-12.238h-3.3789l-3.3965 12.18c-0.17125 0.62125-0.36086 1.4277-0.56836 2.4277-0.20875 0.99625-0.3682 1.9015-0.4707 2.709-0.1975-1.4938-0.5325-3.2153-1-5.1641l-2.9785-12.152h-3.4824zm30.85 0v20.854h3.4082v-20.854h-3.4082zm69.045 0v20.854h3.0957v-10.84c0-1.4638-0.0662-3.0814-0.20117-4.8476l-0.0703-0.92774h0.11524l10.256 16.615h4.1738v-20.854h-3.123v10.926c0 0.77 0.0291 1.8425 0.0879 3.2188 0.0575 1.3725 0.094 2.168 0.11523 2.3867h-0.0859l-10.229-16.531h-4.1348zm40.219 0v20.854h3.4082v-20.854h-3.4082zm9.5547 0v20.854h3.0957v-10.84c0-1.4638-0.066-3.0814-0.19727-4.8476l-0.0742-0.92774h0.11524l10.252 16.615h4.1816v-20.854h-3.123v10.926c0 0.77 0.029 1.8425 0.084 3.2188 0.055 1.3725 0.0958 2.168 0.11328 2.3867h-0.084l-10.225-16.531h-4.1387zm38.766 0v20.854h3.0957v-10.141c0-2.2625-0.0809-4.6859-0.24219-7.2734h0.11524l6.0469 17.414h3.0078l6.2598-17.385h0.11524c-0.04 0.35125-0.0835 1.3577-0.13477 3.0215-0.055 1.665-0.0801 3.0145-0.0801 4.0508v10.312h3.2812v-20.854h-4.8203l-5.9609 16.59h-0.0879l-5.7891-16.59h-4.8066zm69.629 0v20.854h3.4082v-20.854h-3.4082zm49.895 0v20.854h3.0957v-10.84c0-1.4638-0.0662-3.0814-0.20117-4.8476l-0.0703-0.92774h0.11524l10.252 16.615h4.1777v-20.854h-3.1211v10.926c0 0.77 0.0272 1.8425 0.0859 3.2188 0.0575 1.3725 0.0938 2.168 0.11133 2.3867h-0.082l-10.229-16.531h-4.1348zm-533.36 0.002v13.434c0 2.3988 0.7186 4.2777 2.1524 5.6465 1.435 1.3725 3.4457 2.0547 6.0332 2.0547 1.7375 0 3.2337-0.30984 4.4824-0.93359 1.2512-0.62125 2.2079-1.5103 2.8691-2.6641 0.66-1.1562 0.99219-2.5049 0.99219-4.0449v-13.492h-3.4082v13.164c0 3.3762-1.6053 5.0625-4.8203 5.0625-1.6538 0-2.8816-0.40906-3.6816-1.2266-0.79875-0.8175-1.1992-2.0879-1.1992-3.8066v-13.193h-3.4199zm52.533 0 7.2773 20.852h3.5918l7.2988-20.852h-3.5332l-4.3496 12.908c-0.16 0.45625-0.37265 1.1569-0.6289 2.1094-0.255 0.95-0.44461 1.7892-0.56836 2.5117-0.0812-0.4775-0.245-1.2008-0.5-2.1758-0.26-0.975-0.50031-1.7687-0.72657-2.3887l-4.3516-12.965h-3.5098zm38.506 0v20.852h3.4082v-8.3301h3.3652l4.9941 8.3301h3.8789l-5.8867-9.2266c2.6962-1.1025 4.0488-2.9526 4.0488-5.5488 0-2.0362-0.64695-3.5564-1.9394-4.5664-1.2912-1.0075-3.286-1.5098-5.9785-1.5098h-5.8906zm59.99 0 6.916 12.879v7.9727h3.4238v-8.0879l6.9453-12.764h-3.707l-4.9356 9.5137-4.9356-9.5137h-3.707zm310.36 0v20.85h5.832c3.595 0 6.3473-0.90727 8.2598-2.7285 1.9088-1.8212 2.8652-4.454 2.8652-7.8965 0-3.24-0.92312-5.7542-2.7656-7.543-1.8437-1.7888-4.4266-2.6816-7.7441-2.6816h-6.4473zm-272.67 2.5938c2.0225 0 3.5478 0.66132 4.5703 1.9863 1.0225 1.3212 1.5332 3.2596 1.5332 5.8184 0 2.595-0.51883 4.5476-1.5488 5.8613-1.0288 1.3112-2.5627 1.9668-4.584 1.9668-2.0375 0-3.5692-0.66328-4.6055-1.9883-1.0362-1.325-1.5547-3.2736-1.5547-5.8398 0-2.5588 0.51875-4.4971 1.5625-5.8184 1.04-1.325 2.5832-1.9863 4.627-1.9863zm121.73 0c2.0262 0 3.5517 0.66132 4.5742 1.9863 1.0225 1.3212 1.5312 3.2596 1.5312 5.8184 0 2.595-0.51688 4.5476-1.5469 5.8613-1.0325 1.3112-2.5627 1.9668-4.584 1.9668-2.0362 0-3.5731-0.66328-4.6094-1.9883-1.0362-1.325-1.5527-3.2736-1.5527-5.8398 0-2.5588 0.51859-4.4971 1.5586-5.8184 1.04-1.325 2.5852-1.9863 4.6289-1.9863zm208.06 0c2.0262 0 3.5478 0.66132 4.5703 1.9863 1.0225 1.3212 1.5312 3.2596 1.5312 5.8184 0 2.595-0.51297 4.5476-1.543 5.8613-1.0325 1.3112-2.5629 1.9668-4.5879 1.9668-2.0338 0-3.5692-0.66328-4.6055-1.9883-1.0362-1.325-1.5547-3.2736-1.5547-5.8398 0-2.5588 0.5225-4.4971 1.5625-5.8184 1.04-1.325 2.5832-1.9863 4.627-1.9863zm-70.191 0.25976c0.095 0.38 0.26899 0.97742 0.52149 1.7949 0.25125 0.8175 0.44929 1.4169 0.59179 1.7969l1.957 5.6777h-6.0781l1.8828-5.4336c0.4925-1.3862 0.87-2.6672 1.125-3.8359zm16.475 0h2.9551c4.6675 0 7 2.4963 7 7.4863 0 5.095-2.5088 7.6465-7.5312 7.6465h-2.4238v-15.133zm-370.35 0.0293h2.2578c1.5475 0 2.7067 0.25453 3.4805 0.76953 0.76625 0.51 1.1543 1.3584 1.1543 2.5371 0 1.16-0.35797 2.0356-1.0742 2.623-0.7075 0.59125-1.8617 0.88476-3.4492 0.88476h-2.3691v-6.8144zm302.56 8.7715v2.709h12.268v-2.709h-12.268zm-515.06 15.45c3.5788 2.6075 7.234 4.0897 7.709 4.2422 0.47625-0.1525 4.1302-1.6347 7.709-4.2422 2.525 5.9938 7.7939 10.633 10.191 12.523-3.305 2.0925-6.7428 3.8312-10.32 5.1387-0.02375-0.12625-0.03344-0.25211-0.05469-0.38086-0.74-3.805-5.7091-4.5848-7.5254-4.5898-1.8162 0.005-6.7866 0.78485-7.5254 4.5898-0.02125 0.12875-0.03219 0.25461-0.05469 0.38086-3.5775-1.3075-7.0146-3.0462-10.318-5.1387 2.3975-1.89 7.6632-6.5297 10.189-12.523zm7.709 15.014c1.79 0.02 4.8991 0.85507 5.2578 2.7051 1.27 6.57-2.0987 12.076-4.3574 14.912-0.035 0.0412-0.45539 0.55297-0.90039 0.60547-0.44375-0.0525-0.86539-0.56422-0.90039-0.60547-2.2588-2.8362-5.6281-8.3421-4.3594-14.912 0.35875-1.85 3.471-2.6851 5.2598-2.7051z" transform="matrix(.8 0 0 -.8 0 204)" fill="#282728"/><path d="m64.881 69.658c-0.4786 0.0061-0.96476 0.02445-1.459 0.05664-4.59 0.29875-9.1203 1.2772-12.602 3.4922-16.104 10.269-18.371 33.937-18.697 41.689-1.15 27.424 7.5202 48.842 10.209 54.752 11.145 24.539 24.597 41.885 37.885 47.785l1.0625 0.47461 1.0703-0.47461c13.28-5.9 26.739-23.246 37.879-47.785 2.6888-5.91 11.36-27.328 10.211-54.752-0.32625-7.7525-2.5923-31.421-18.697-41.689-3.4825-2.215-8.0527-3.1934-12.646-3.4922-7.9075-0.515-13.769 2.5079-17.715 2.6191h-0.19922c-3.6996-0.1043-9.1217-2.7677-16.301-2.6758zm403.77 24.319c-22.463 0.56776-39.814 18.568-39.814 39.947 0 23.822 18.71 40.312 40.889 40.312 22.292 0 41.209-17.195 41.209-40.898 0-20.894-16.565-39.483-40.094-39.361-0.73484-0.01844-1.4648-0.01831-2.1894 0zm-130.99 0.10352c-13.664 0-28.113 5.5898-28.113 20.215 0 24.63 38.525 21.378 38.525 39.498 0 8.1312-9.6241 12.074-16.008 12.074-8.74 0-17.929-3.7135-24.535-9.6348l3.252 14.516c6.3838 2.4425 13.217 3.4883 20.047 3.4883 17.484 0 30.02-11.622 30.02-24.043 0-21.492-38.537-21.262-38.537-37.172 0-8.0125 8.0724-10.57 14.451-10.57 6.28 0 13.224 2.67 17.594 7.3125v-13.125c-5.3838-1.7412-11.093-2.5586-16.695-2.5586zm66.691 0c-22.969 0-39.326 15.917-39.326 39.965 0 24.864 16.357 40.191 42.797 40.191 5.8212 0 11.641-0.92328 16.912-3.4883l5.7148-13.467h-0.34375c-7.0562 4.175-15.452 7.3203-23.854 7.3203-17.25 0-28.457-15.224-28.457-32.297 0-16.849 10.755-28.576 26.215-28.576 7.3875 0 14.565 2.5516 20.725 6.6191v-13.357c-6.615-1.6262-13.557-2.9102-20.383-2.9102zm215.58 0c-13.652 0-28.107 5.5898-28.107 20.215 0 24.63 38.525 21.378 38.525 39.498 0 8.1312-9.6308 12.074-16.02 12.074-8.735 0-17.912-3.7135-24.529-9.6348l3.252 14.516c6.3838 2.4425 13.226 3.4883 20.059 3.4883 17.464 0 30.01-11.622 30.01-24.043 0-21.492-38.531-21.262-38.531-37.172 0-8.0125 8.0649-10.57 14.451-10.57 6.2738 0 13.224 2.67 17.584 7.3125v-13.125c-5.37-1.7412-11.083-2.5586-16.693-2.5586zm-447.93 1.8652v0.34375c5.6025 3.95 7.2888 11.505 9.2988 17.893l13.221 42.861c3.6912 11.97 4.7017 11.157 14.887 18.82l17.482-58.666 12.312 39.963c3.7062 11.964 4.4917 11.384 14.793 18.703l23.631-79.918h-17.246v0.34375c8.7388 3.1363 5.0404 12.547 3.0254 19.168l-12.66 42.516-15.57-50.301c-1.57-5.1062-2.3409-8.8228-1.6797-11.727h-15.795v0.34375c6.1625 3.2588 3.9274 10.805 1.7949 17.893l-13.113 44.143-16.682-54.018c-0.6725-2.2138-1.79-5.8076-1.3438-8.3613h-16.355zm109.44 0v0.34375c5.7138 2.21 4.9258 10.689 4.9258 16.035v43.785c0 5.2225 0.67047 13.83-4.9258 15.92v0.34961h21.285v-0.34961c-5.5988-2.2112-4.9336-10.697-4.9336-15.92v-43.785c0-5.2312-0.66515-13.825 4.9336-16.035v-0.34375h-21.285zm232.28 0v0.34375c5.8188 3.4888 5.8184 8.1374 5.8184 14.639v46.354c0 6.4975 0.00086 11.141-5.9316 14.748v0.34961h19.826v-0.34961c-5.9425-3.6075-5.8301-8.2506-5.8301-14.748v-44.957l38.424 50.523c4.9262 6.6262 8.4003 10.464 16.352 13.25v-65.17c0-6.5012 0.00047-11.15 5.8242-14.639v-0.34375h-19.713v0.34375c5.9387 3.4888 5.8301 8.1374 5.8301 14.639v44.031l-41-53.666-1.5723-2.3262c-0.78375-0.935-1.239-1.5084-1.6777-2.9121v-0.10938h-16.35zm133.63 0v0.34375c5.7075 2.21 4.9277 10.689 4.9277 16.035v43.785c0 5.2225 0.67976 13.83-4.9277 15.92v0.34961h21.275v-0.34961c-5.6038-2.2112-4.9219-10.697-4.9219-15.92v-43.785c0-5.2312-0.68188-13.825 4.9219-16.035v-0.34375h-21.275zm26.912 0v0.34375c5.8225 3.4888 5.8223 8.1387 5.8223 14.639v46.354c0 6.4988 0.001 11.142-5.9277 14.748v0.34961h19.83v-0.34961c-5.94-3.6062-5.8242-8.2493-5.8242-14.748v-44.957l38.416 50.523c4.9212 6.6275 8.4116 10.464 16.352 13.252v-65.172c0-6.5 0.00047-11.15 5.8242-14.639v-0.34375h-19.713v0.34375c5.95 3.4888 5.8301 8.1387 5.8301 14.639v44.033l-41.002-53.668-1.5723-2.3262c-0.7725-0.93375-1.2222-1.5071-1.6797-2.9121v-0.10938h-16.355zm-204.19 6.3848c17.686 0 28.104 16.382 28.104 33.342 0 17.311-10.866 30.195-27.885 30.195-17.584 0-28.682-16.723-28.682-32.99 0-17.542 11.099-30.547 28.463-30.547z" transform="matrix(.8 0 0 -.8 0 204)" fill="#c5050c"/><path d="m84.166 126.97v-4.287l0.866 0.132c0.014 0.003 0.177 0.024 0.406 0.024 0.474 0 1.346-0.083 1.892-0.64 0.514-0.522 0.678-1.405 0.494-2.562-0.016-0.043-8.622-37.353-10.259-44.463-1.884 8.99-12.139 58.08-12.139 58.08l-0.043 0.209h-2.033l-0.033-0.221s-7.419-47.788-8.902-57.353c-1.934 8.28-10.201 43.705-10.201 43.705-0.024 0.226-0.033 0.442-0.033 0.643 0 1.003 0.236 1.74 0.71 2.192 0.629 0.605 1.581 0.52 1.665 0.511l0.851-0.112 0.007 4.142h-14.398v-4.052l0.636-0.1c0.316-0.062 1.921-0.45 2.185-1.919 0.004-0.024 16.846-72.3 17.561-75.375l0.05-0.202h2.533l0.029 0.22c0.08 0.5 6.935 45.358 8.216 53.76 1.629-8.365 10.359-53.274 10.453-53.769l0.043-0.211h2.26l16.718 75.62c0.385 1.57 1.763 1.738 2.34 1.738 0.083 0 0.139-0.003 0.167-0.008l0.827-0.066v4.364h-12.868z" fill="#fff"/></g></g></g></svg>
