<?xml version="1.0" encoding="UTF-8" standalone="no"?>
<!-- Created with Inkscape (http://www.inkscape.org/) -->

<svg
   xmlns:dc="http://purl.org/dc/elements/1.1/"
   xmlns:cc="http://creativecommons.org/ns#"
   xmlns:rdf="http://www.w3.org/1999/02/22-rdf-syntax-ns#"
   xmlns:svg="http://www.w3.org/2000/svg"
   xmlns="http://www.w3.org/2000/svg"
   xmlns:sodipodi="http://sodipodi.sourceforge.net/DTD/sodipodi-0.dtd"
   xmlns:inkscape="http://www.inkscape.org/namespaces/inkscape"
   id="svg4850"
   version="1.1"
   inkscape:version="0.91 r13725"
   xml:space="preserve"
   width="286.66251"
   height="429.98749"
   viewBox="0 0 286.66251 429.98749"
   sodipodi:docname="FlyoverCountry.svg"><metadata
     id="metadata4856"><rdf:RDF><cc:Work
         rdf:about=""><dc:format>image/svg+xml</dc:format><dc:type
           rdf:resource="http://purl.org/dc/dcmitype/StillImage" /><dc:title></dc:title></cc:Work></rdf:RDF></metadata><defs
     id="defs4854"><clipPath
       clipPathUnits="userSpaceOnUse"
       id="clipPath4866"><path
         d="m 0,0 0,3440 2290,0 L 2290,0 0,0 Z"
         id="path4868"
         inkscape:connector-curvature="0" /></clipPath></defs><sodipodi:namedview
     pagecolor="#ffffff"
     bordercolor="#666666"
     borderopacity="1"
     objecttolerance="10"
     gridtolerance="10"
     guidetolerance="10"
     inkscape:pageopacity="0"
     inkscape:pageshadow="2"
     inkscape:window-width="905"
     inkscape:window-height="480"
     id="namedview4852"
     showgrid="false"
     inkscape:zoom="0.54885318"
     inkscape:cx="-88.971309"
     inkscape:cy="214.99374"
     inkscape:window-x="49"
     inkscape:window-y="24"
     inkscape:window-maximized="0"
     inkscape:current-layer="g4858" /><g
     id="g4858"
     inkscape:groupmode="layer"
     inkscape:label="ink_ext_XXXXXX"
     transform="matrix(1.25,0,0,-1.25,0,429.9875)"><g
       id="g4860"
       transform="scale(0.1,0.1)"><g
         id="g4862"><g
           id="g4864"
           clip-path="url(#clipPath4866)"><path
             d="m 47.832,3437.93 77.859,0 0,-28.19 -43.0543,0 0,-42.75 40.3903,0 0,-26.94 -40.3903,0 0,-68.73 -34.8047,0 0,166.61"
             style="fill:#1a64b7;fill-opacity:1;fill-rule:nonzero;stroke:none"
             id="path4870"
             inkscape:connector-curvature="0" /><path
             d="m 196.719,3437.93 34.804,0 0,-139.16 45.704,0 0,-27.45 -80.508,0 0,166.61"
             style="fill:#1a64b7;fill-opacity:1;fill-rule:nonzero;stroke:none"
             id="path4872"
             inkscape:connector-curvature="0" /><path
             d="m 339.043,3271.32 0,63.77 -39.316,102.84 37.199,0 11.953,-39.81 c 3.445,-10.62 6.914,-22.98 9.559,-35.34 l 0.539,0 c 2.117,12.12 5.046,24.22 8.23,36.08 l 10.637,39.07 36.14,0 -40.129,-101.59 0,-65.02 -34.812,0"
             style="fill:#1a64b7;fill-opacity:1;fill-rule:nonzero;stroke:none"
             id="path4874"
             inkscape:connector-curvature="0" /><path
             d="m 514.551,3269.35 c -40.656,0 -56.59,40.04 -56.59,85.76 0,45.48 19.383,84.79 59.246,84.79 43.047,0 55.266,-44.24 55.266,-82.31 0,-62.79 -23.91,-88.24 -57.668,-88.24 l -0.254,0 z m 1.328,28.18 c 14.883,0 20.449,24.71 20.449,58.58 0,29.41 -4.773,55.62 -20.723,55.62 -15.41,0 -21.777,-26.21 -21.523,-56.36 -0.527,-33.13 6.113,-57.84 21.523,-57.84 l 0.274,0"
             style="fill:#1a64b7;fill-opacity:1;fill-rule:nonzero;stroke:none"
             id="path4876"
             inkscape:connector-curvature="0" /><path
             d="m 656.301,3271.32 -39.856,166.61 38.528,0 12.761,-71.94 c 2.911,-18.03 6.629,-38.31 9.024,-57.84 l 0.539,0 c 2.391,19.78 5.308,39.81 8.496,58.58 l 12.227,71.2 38.257,0 -40.918,-166.61 -39.058,0"
             style="fill:#1a64b7;fill-opacity:1;fill-rule:nonzero;stroke:none"
             id="path4878"
             inkscape:connector-curvature="0" /><path
             d="m 871.133,3344.49 -40.653,0 0,-44.98 45.958,0 0,-28.19 -80.762,0 0,166.61 77.847,0 0,-28.19 -43.043,0 0,-38.31 40.653,0 0,-26.94"
             style="fill:#1a64b7;fill-opacity:1;fill-rule:nonzero;stroke:none"
             id="path4880"
             inkscape:connector-curvature="0" /><path
             d="m 935.828,3435.46 c 10.891,1.96 24.707,3.21 37.988,3.21 19.145,0 36.404,-2.48 47.834,-12.37 10.9,-9.14 14.35,-20.27 14.35,-34.59 0,-17.81 -9.56,-33.87 -27.64,-41.54 l 0,-0.49 c 12.23,-4.69 18.34,-15.07 21.8,-33.12 3.44,-18.54 8.23,-39.05 11.41,-45.24 l -36.39,0 c -2.4,4.7 -6.379,21.51 -9.035,40.06 -3.184,20.51 -8.774,26.44 -20.2,26.44 l -5.308,0 0,-66.5 -34.809,0 0,164.14 z m 34.809,-72.68 6.367,0 c 15.144,0 23.656,11.38 23.656,25.96 0,14.33 -6.117,24.22 -21.519,24.71 -3.196,0 -6.653,-0.24 -8.504,-0.98 l 0,-49.69"
             style="fill:#1a64b7;fill-opacity:1;fill-rule:nonzero;stroke:none"
             id="path4882"
             inkscape:connector-curvature="0" /><path
             d="m 1268.49,3273.3 c -5.05,-2.22 -14.88,-3.95 -26.84,-3.95 -45.97,0 -67.75,34.86 -67.75,82.31 0,62.78 37.46,87.24 72.27,87.24 12.22,0 20.72,-2.47 24.18,-4.45 l -5.85,-27.18 c -3.97,1.73 -8.51,3.21 -16.21,3.21 -19.66,0 -37.47,-15.82 -37.47,-57.09 0,-39.8 16.22,-55.37 37.47,-55.37 5.84,0 12.49,1.23 16.75,2.48 l 3.45,-27.2"
             style="fill:#1a64b7;fill-opacity:1;fill-rule:nonzero;stroke:none"
             id="path4884"
             inkscape:connector-curvature="0" /><path
             d="m 1384.74,3269.35 c -40.67,0 -56.61,40.04 -56.61,85.76 0,45.48 19.39,84.79 59.25,84.79 43.05,0 55.27,-44.24 55.27,-82.31 0,-62.79 -23.92,-88.24 -57.66,-88.24 l -0.25,0 z m 1.32,28.18 c 14.89,0 20.45,24.71 20.45,58.58 0,29.41 -4.77,55.62 -20.73,55.62 -15.4,0 -21.78,-26.21 -21.52,-56.36 -0.53,-33.13 6.12,-57.84 21.52,-57.84 l 0.28,0"
             style="fill:#1a64b7;fill-opacity:1;fill-rule:nonzero;stroke:none"
             id="path4886"
             inkscape:connector-curvature="0" /><path
             d="m 1535.22,3437.93 0,-108.27 c 0,-24.47 7.73,-31.89 17.02,-31.89 10.09,0 17.27,6.68 17.27,31.89 l 0,108.27 34.81,0 0,-102.58 c 0,-42.76 -17.53,-66 -51.81,-66 -37.47,0 -52.08,24.22 -52.08,65.74 l 0,102.84 34.79,0"
             style="fill:#1a64b7;fill-opacity:1;fill-rule:nonzero;stroke:none"
             id="path4888"
             inkscape:connector-curvature="0" /><path
             d="m 1662.1,3271.32 0,166.61 31.88,0 27.63,-65.51 c 5.6,-12.61 14.09,-34.1 19.15,-48.45 l 0.53,0 c -1.07,17.31 -3.46,46.48 -3.46,77.12 l 0,36.84 30.56,0 0,-166.61 -31.89,0 -27.38,63.53 c -6.09,13.85 -14.06,35.1 -18.32,49.92 l -0.54,0 c 1.08,-16.79 2.4,-42.51 2.4,-75.88 l 0,-37.57 -30.56,0"
             style="fill:#1a64b7;fill-opacity:1;fill-rule:nonzero;stroke:none"
             id="path4890"
             inkscape:connector-curvature="0" /><path
             d="m 1857.78,3408.02 -31.62,0 0,29.91 98.32,0 0,-29.91 -31.88,0 0,-136.7 -34.82,0 0,136.7"
             style="fill:#1a64b7;fill-opacity:1;fill-rule:nonzero;stroke:none"
             id="path4892"
             inkscape:connector-curvature="0" /><path
             d="m 1982.28,3435.46 c 10.88,1.96 24.7,3.21 37.98,3.21 19.14,0 36.41,-2.48 47.83,-12.37 10.9,-9.14 14.36,-20.27 14.36,-34.59 0,-17.81 -9.57,-33.87 -27.64,-41.54 l 0,-0.49 c 12.23,-4.69 18.32,-15.07 21.79,-33.12 3.45,-18.54 8.23,-39.05 11.43,-45.24 l -36.41,0 c -2.39,4.7 -6.38,21.51 -9.03,40.06 -3.19,20.51 -8.77,26.44 -20.21,26.44 l -5.3,0 0,-66.5 -34.8,0 0,164.14 z m 34.8,-72.68 6.37,0 c 15.15,0 23.65,11.38 23.65,25.96 0,14.33 -6.1,24.22 -21.51,24.71 -3.21,0 -6.65,-0.24 -8.51,-0.98 l 0,-49.69"
             style="fill:#1a64b7;fill-opacity:1;fill-rule:nonzero;stroke:none"
             id="path4894"
             inkscape:connector-curvature="0" /><path
             d="m 2170.58,3271.32 0,63.77 -39.33,102.84 37.2,0 11.96,-39.81 c 3.44,-10.62 6.9,-22.98 9.56,-35.34 l 0.53,0 c 2.12,12.12 5.05,24.22 8.23,36.08 l 10.64,39.07 36.14,0 -40.13,-101.59 0,-65.02 -34.8,0"
             style="fill:#1a64b7;fill-opacity:1;fill-rule:nonzero;stroke:none"
             id="path4896"
             inkscape:connector-curvature="0" /><path
             d="m 1495.61,1272.24 c -6.19,5.43 -11.59,11.05 -16.17,16.83 l -4.74,-16.55 c 7.06,0.05 13.95,-0.15 20.91,-0.28 z m 497.25,-393.65 c -23.28,-81.949 -120.55,-103.031 -243.52,-83.809 -109.96,17.188 -225.9,33.699 -206.28,-36.402 28.31,-101.109 -287.19,28.312 -287.19,28.312 -141.83,49.641 -287.401,-2.363 -321.163,-15.929 -162.656,22.5 -275.547,66.367 -111.531,134.867 68.679,28.691 110.515,97.041 -161.867,137.901 -183.438,27.52 -279.715,62.81 -324.883,98.64 -48.86,38.76 -37.891,78.15 -12.395,109.08 16.821,20.4 39.895,37.1 56.282,47.5 39.367,21.26 76.718,39.75 100.5,47.62 l 210.828,127.92 c 60.672,54.6 139.55,18.2 139.55,18.2 0,0 169.869,-109.2 206.269,-115.27 36.41,-6.07 36.41,12.13 78.88,-12.13 42.46,-24.27 90.99,30.33 139.53,18.2 43.81,-10.96 191.32,-76.23 219.71,-88.88 -13.87,19.79 -19.52,41.05 -19.52,61.5 0,6.7 0.81,13.24 1.87,19.67 -12.72,3 -25.49,6.64 -35.54,10.95 -33.9,14.52 -49.88,43.37 -53.27,63.65 0.12,-0.75 0.26,-1.49 0.43,-2.22 0,0 -17.16,77.27 -26.82,120.77 -37.15,-4.13 -88.5,-9.83 -88.5,-9.83 -1.55,-0.17 -3.12,-0.25 -4.68,-0.25 -53.56,0 -93.72,16.27 -119.36,48.35 -37.3,46.66 -25.36,105.69 -23.86,112.27 0.25,1.16 0.59,2.37 0.95,3.51 0.26,0.85 27.18,87.56 47.38,279.44 12.33,117.24 -8.02,147.18 -41.72,196.8 -18.91,27.82 -42.44,62.45 -64.25,116.31 -29.49,72.89 -18.12,229.62 33.65,466.74 -163.824,2.45 -469.672,19.27 -671.07,103.68 C 298.563,2784.4 274.68,2644.68 274.68,2441.25 l 0,-1327.47 c 57.965,-54.4 165.086,-82.17 260.332,-88.98 174.285,-12.47 223.367,-96.538 113.433,-119.171 -81.961,-16.848 -119.55,-61.32 -61.297,-144.078 33.282,-47.289 109.5,-82.699 168.758,-104.379 C 652.371,527.031 1103.53,443.898 829.285,335.469 801.387,324.43 792.48,307.379 797.5,291.219 l 680.83,0 c 0.6,0 1.2,-0.02 1.8,-0.039 134.36,-5.668 266,43.39 361.17,134.629 100.16,96.011 153.1,227.75 153.1,380.961 l 0,72.05 c -0.51,-0.07 -1.03,-0.148 -1.54,-0.23"
             style="fill:#98d4f3;fill-opacity:1;fill-rule:nonzero;stroke:none"
             id="path4898"
             inkscape:connector-curvature="0" /><path
             d="m 2250.87,770.52 c 0,-402.079 -325.97,-728.0512 -728.04,-728.0512 l -752.31,0 C 368.43,42.4688 42.4688,368.441 42.4688,770.52 l 0,1795.84 c 0,241.12 117.2892,454.75 297.8442,587.25 214.191,-93.69 494.035,-126.15 800.297,-126.15 309.84,0 592.62,33.83 807.74,129.48 183.18,-132.23 302.52,-347.4 302.52,-590.58 l 0,-1795.84 z m -277.66,2420.86 c -12.26,8.84 -28.3,10.5 -42.11,4.37 -190.4,-84.67 -448.98,-125.82 -790.49,-125.82 -338.469,0 -594.68,40.1 -783.286,122.59 -13.879,6.07 -29.922,4.28 -42.136,-4.67 C 117.832,3043.02 0,2810.69 0,2566.36 L 0,770.52 C 0,345.648 345.652,0 770.52,0 l 752.31,0 c 424.86,0 770.51,345.648 770.51,770.52 l 0,1795.84 c 0,246.68 -119.68,480.33 -320.13,625.02 z M 1994.4,806.77 c 0,-153.211 -52.94,-284.95 -153.1,-380.961 -95.17,-91.239 -226.81,-140.297 -361.17,-134.629 -0.6,0.019 -1.2,0.039 -1.8,0.039 l -723.994,0 c -295.867,0 -479.656,211.492 -479.656,551.953 l 0,1598.078 c 0,203.43 23.883,343.15 136.59,444.5 201.398,-84.41 507.246,-101.23 671.07,-103.68 -51.77,-237.12 -63.14,-393.85 -33.65,-466.74 21.81,-53.86 45.34,-88.49 64.25,-116.31 33.7,-49.62 54.05,-79.56 41.72,-196.8 -20.2,-191.88 -47.12,-278.59 -47.38,-279.44 -0.36,-1.14 -0.7,-2.35 -0.95,-3.51 -1.5,-6.58 -13.44,-65.61 23.86,-112.27 25.64,-32.08 65.8,-48.35 119.36,-48.35 1.56,0 3.13,0.08 4.68,0.25 0,0 51.35,5.7 88.5,9.83 9.66,-43.5 26.82,-120.77 26.82,-120.77 -0.17,0.73 -0.31,1.47 -0.43,2.22 3.39,-20.28 19.37,-49.13 53.27,-63.65 10.05,-4.31 22.82,-7.95 35.54,-10.95 -1.06,-6.43 -1.87,-12.97 -1.87,-19.67 0,-20.45 5.65,-41.71 19.52,-61.5 -28.39,12.65 -175.9,77.92 -219.71,88.88 -48.54,12.13 -97.07,-42.47 -139.53,-18.2 -42.47,24.26 -42.47,6.06 -78.88,12.13 -36.4,6.07 -206.269,115.27 -206.269,115.27 0,0 -78.878,36.4 -139.55,-18.2 L 480.813,1346.37 c 0.117,0.04 0.261,0.1 0.378,0.14 -12.453,-9.75 -19.953,-17.93 -23.847,-24.83 -3.086,-8.39 -2.11,-17.87 10.761,-25.61 30.34,-18.2 88.543,5.3 129.5,17.45 45.149,13.38 47.012,-13.66 22.747,-43.99 -0.43,-0.55 -1.082,-1.06 -1.575,-1.58 -30.039,-36.21 115.364,42.52 151.743,6.13 36.394,-36.41 0,30.33 91.003,-6.06 91.004,-36.41 66.739,6.06 36.407,36.39 -30.34,30.34 18.191,24.27 48.535,-24.27 30.332,-48.53 78.865,-36.39 48.535,0 -30.344,36.41 18.19,0 54.6,-6.06 36.4,-6.06 84.93,30.33 139.54,12.13 54.6,-18.19 121.34,-42.46 48.54,18.2 -72.82,60.68 48.86,-46.68 151.68,-36.39 29.12,2.92 57.55,4.29 85.34,4.5 l 4.74,16.55 c 4.58,-5.78 9.98,-11.4 16.17,-16.83 0.77,-0.68 1.4,-1.38 2.2,-2.05 19.58,-16.41 40.02,-28.66 58.05,-39.45 39.05,-23.42 49.65,-32.15 49.65,-49.13 0,-128.71 49.77,-275.079 189.52,-299.84 62.05,-10.981 129.38,-11.899 197.83,-3.18 0.51,0.082 1.03,0.16 1.54,0.23 l 0,-72.05 z m -191.97,116.808 c -138.66,24.582 -154.45,194.842 -154.45,258.032 0,43.49 -32.41,62.87 -70.36,85.6 -17.21,10.29 -35.55,21.29 -52.51,35.52 -54.41,45.62 -8.78,105.29 -8.78,105.29 0,0 -52.67,7.03 -77.22,17.56 -24.59,10.52 -28.09,31.58 -28.09,31.58 l -35.09,157.97 -126.38,-14.01 c -126.38,0 -101.81,108.8 -101.81,108.8 0,0 28.09,87.76 49.14,287.85 21.08,200.1 -49.15,186.06 -108.81,333.49 -32.03,79.16 0.68,280.72 37.85,450.45 3.15,14.43 6.35,28.62 9.54,42.49 -1.95,0 -3.94,-0.03 -5.88,-0.03 -12.45,0 -25.08,0.1 -37.77,0.24 -242.232,2.77 -522.708,32.56 -689.029,111.18 C 255.242,2818.57 232.207,2654.18 232.207,2441.25 l 0,-1598.078 c 0,-355.102 193.555,-594.422 522.129,-594.422 l 723.994,0 c 276.71,-11.691 538.63,187.609 557.36,519.801 0.72,12.558 1.18,25.258 1.18,38.219 l 0,122.101 c -14.34,-2.832 -28.52,-5.199 -42.47,-7.101 -71.33,-9.731 -137.16,-7.891 -191.97,1.808"
             style="fill:#ffffff;fill-opacity:1;fill-rule:nonzero;stroke:none"
             id="path4900"
             inkscape:connector-curvature="0" /><path
             d="m 2036.87,806.77 c 0,-12.961 -0.46,-25.661 -1.18,-38.219 C 2016.96,436.359 1755.04,237.059 1478.33,248.75 l -723.994,0 c -328.574,0 -522.129,239.32 -522.129,594.422 l 0,355.618 c -0.273,4.63 -0.273,9.35 0,14.21 l 0,1228.25 c 0,212.93 23.035,377.32 170.574,494.34 166.321,-78.62 446.797,-108.41 689.029,-111.18 12.69,-0.14 25.32,-0.24 37.77,-0.24 1.94,0 3.93,0.03 5.88,0.03 -3.19,-13.87 -6.39,-28.06 -9.54,-42.49 -37.17,-169.73 -69.88,-371.29 -37.85,-450.45 59.66,-147.43 129.89,-133.39 108.81,-333.49 -21.05,-200.09 -49.14,-287.85 -49.14,-287.85 0,0 -24.57,-108.8 101.81,-108.8 l 126.38,14.01 35.09,-157.97 c 0,0 3.5,-21.06 28.09,-31.58 24.55,-10.53 77.22,-17.56 77.22,-17.56 0,0 -45.63,-59.67 8.78,-105.29 16.96,-14.23 35.3,-25.23 52.51,-35.52 37.95,-22.73 70.36,-42.11 70.36,-85.6 0,-63.19 15.79,-233.45 154.45,-258.032 54.81,-9.699 120.64,-11.539 191.97,-1.808 13.95,1.902 28.13,4.269 42.47,7.101 l 0,-122.101 z m -88.52,2350.17 c -215.12,-95.65 -497.9,-129.48 -807.74,-129.48 -306.262,0 -586.106,32.46 -800.297,126.15 C 159.758,3021.11 42.4688,2807.48 42.4688,2566.36 l 0,-1795.84 C 42.4688,368.441 368.43,42.4688 770.52,42.4688 l 752.31,0 c 402.07,0 728.04,325.9722 728.04,728.0512 l 0,1795.84 c 0,243.18 -119.34,458.35 -302.52,590.58 z M 755.906,657.172 c -59.258,21.68 -135.476,57.09 -168.758,104.379 -58.253,82.758 -20.664,127.23 61.297,144.078 109.934,22.633 60.852,106.701 -113.433,119.171 -95.246,6.81 -202.367,34.58 -260.332,88.98 l 0,-270.608 c 0,-340.461 183.789,-551.953 479.656,-551.953 l 43.164,0 c -5.02,16.16 3.887,33.211 31.785,44.25 274.245,108.429 -176.914,191.562 -73.379,321.703 z M 1795.03,881.77 c -139.75,24.761 -189.52,171.13 -189.52,299.84 0,16.98 -10.6,25.71 -49.65,49.13 -18.03,10.79 -38.47,23.04 -58.05,39.45 -0.8,0.67 -1.43,1.37 -2.2,2.05 -6.96,0.13 -13.85,0.33 -20.91,0.28 -27.79,-0.21 -56.22,-1.58 -85.34,-4.5 -102.82,-10.29 -224.5,97.07 -151.68,36.39 72.8,-60.66 6.06,-36.39 -48.54,-18.2 -54.61,18.2 -103.14,-18.19 -139.54,-12.13 -36.41,6.06 -84.944,42.47 -54.6,6.06 30.33,-36.39 -18.203,-48.53 -48.535,0 -30.344,48.54 -78.875,54.61 -48.535,24.27 30.332,-30.33 54.597,-72.8 -36.407,-36.39 -91.003,36.39 -54.609,-30.35 -91.003,6.06 -36.379,36.39 -181.782,-42.34 -151.743,-6.13 0.493,0.52 1.145,1.03 1.575,1.58 24.265,30.33 22.402,57.37 -22.747,43.99 -40.957,-12.15 -99.16,-35.65 -129.5,-17.45 -12.871,7.74 -13.847,17.22 -10.761,25.61 3.894,6.9 11.394,15.08 23.847,24.83 -0.117,-0.04 -0.261,-0.1 -0.378,-0.14 -23.782,-7.87 -61.133,-26.36 -100.5,-47.62 -16.387,-10.4 -39.461,-27.1 -56.282,-47.5 -25.496,-30.93 -36.465,-70.32 12.395,-109.08 45.168,-35.83 141.445,-71.12 324.883,-98.64 272.382,-40.86 230.546,-109.21 161.867,-137.901 -164.016,-68.5 -51.125,-112.367 111.531,-134.867 33.762,13.566 179.333,65.57 321.163,15.929 0,0 315.5,-129.421 287.19,-28.312 -19.62,70.101 96.32,53.59 206.28,36.402 122.97,-19.222 220.24,1.86 243.52,83.809 -68.45,-8.719 -135.78,-7.801 -197.83,3.18"
             style="fill:#1a64b7;fill-opacity:1;fill-rule:nonzero;stroke:none"
             id="path4902"
             inkscape:connector-curvature="0" /><path
             d="m 1676.38,2758.96 c -61.31,0 -111.17,-49.87 -111.17,-111.18 0,-18.44 4.61,-36.75 13.37,-52.91 2.04,-3.76 5.13,-7.88 11.4,-16.1 9.54,-12.52 23.95,-31.42 31.96,-47.9 11.41,-23.49 23.56,-52.52 27,-89.68 l -0.11,2.24 c 0,-7.5 3.22,-14.7 8.84,-19.77 5.13,-4.63 11.84,-6.97 18.71,-6.9 6.86,-0.07 13.56,2.27 18.71,6.9 5.61,5.07 8.84,12.27 8.84,19.77 l -0.11,-2.24 c 3.44,37.16 15.58,66.19 26.99,89.7 8.01,16.46 22.43,35.36 31.96,47.88 6.27,8.22 9.37,12.34 11.42,16.11 8.74,16.15 13.36,34.46 13.36,52.9 0,61.31 -49.87,111.18 -111.17,111.18"
             style="fill:#ffffff;fill-opacity:1;fill-rule:nonzero;stroke:none"
             id="path4904"
             inkscape:connector-curvature="0" /><path
             d="m 1676.38,2734.7 c -48.02,0 -86.91,-38.91 -86.91,-86.92 0,-14.97 3.79,-29.05 10.45,-41.36 3.9,-7.21 30.59,-37.68 43.85,-64.94 11.46,-23.6 25.41,-55.79 29.33,-98.05 0,-1.59 1.69,-2.7 3.28,-2.54 1.59,-0.16 3.28,0.95 3.28,2.54 3.9,42.26 17.86,74.45 29.32,98.05 13.27,27.26 39.96,57.73 43.85,64.94 6.66,12.31 10.45,26.39 10.45,41.36 0,48.01 -38.89,86.92 -86.9,86.92"
             style="fill:#1a64b7;fill-opacity:1;fill-rule:nonzero;stroke:none"
             id="path4906"
             inkscape:connector-curvature="0" /><path
             d="m 1676.4,2685.38 c 19.68,0 35.67,-15.98 35.67,-35.72 0,-19.72 -15.99,-35.7 -35.67,-35.7 -19.76,0 -35.73,15.98 -35.73,35.7 0,19.74 15.97,35.72 35.73,35.72"
             style="fill:#ffffff;fill-opacity:1;fill-rule:nonzero;stroke:none"
             id="path4908"
             inkscape:connector-curvature="0" /><path
             d="m 777.871,1920.3 c -78.308,0 -142.043,-63.72 -142.043,-142.05 0,-23.57 5.902,-46.96 17.094,-67.61 2.605,-4.8 6.558,-10.06 14.566,-20.56 12.192,-15.99 30.598,-40.15 40.832,-61.2 14.578,-30.02 30.086,-67.11 34.493,-114.57 l -0.145,2.84 c 0,-9.56 4.129,-18.78 11.309,-25.25 6.558,-5.91 15.125,-8.9 23.894,-8.82 8.77,-0.08 17.332,2.91 23.906,8.82 7.176,6.47 11.297,15.69 11.297,25.25 l -0.136,-2.84 c 4.398,47.46 19.906,84.55 34.496,114.57 10.222,21.05 28.64,45.21 40.82,61.2 8.008,10.5 11.973,15.76 14.59,20.59 11.172,20.62 17.078,44.01 17.078,67.58 0,78.33 -63.731,142.05 -142.051,142.05"
             style="fill:#ffffff;fill-opacity:1;fill-rule:nonzero;stroke:none"
             id="path4910"
             inkscape:connector-curvature="0" /><path
             d="m 777.871,1889.29 c -61.34,0 -111.035,-49.7 -111.035,-111.04 0,-19.14 4.836,-37.13 13.359,-52.84 4.981,-9.22 39.075,-48.16 56.016,-82.96 14.656,-30.18 32.473,-71.3 37.473,-125.3 0,-2.02 2.168,-3.45 4.187,-3.25 2.031,-0.2 4.199,1.23 4.199,3.25 5,54 22.801,95.12 37.473,125.3 16.941,34.8 51.031,73.74 56.016,82.96 8.511,15.71 13.347,33.7 13.347,52.84 0,61.34 -49.687,111.04 -111.035,111.04"
             style="fill:#1a64b7;fill-opacity:1;fill-rule:nonzero;stroke:none"
             id="path4912"
             inkscape:connector-curvature="0" /><path
             d="m 777.883,1826.28 c 25.176,0 45.613,-20.41 45.613,-45.64 0,-25.19 -20.437,-45.59 -45.613,-45.59 -25.215,0 -45.625,20.4 -45.625,45.59 0,25.23 20.41,45.64 45.625,45.64"
             style="fill:#ffffff;fill-opacity:1;fill-rule:nonzero;stroke:none"
             id="path4914"
             inkscape:connector-curvature="0" /><path
             d="m 1227.13,910.852 c -78.31,0 -142.04,-63.711 -142.04,-142.043 0,-23.59 5.91,-46.981 17.09,-67.629 2.61,-4.801 6.56,-10.051 14.57,-20.559 12.19,-15.98 30.59,-40.141 40.83,-61.191 14.58,-30.02 30.09,-67.121 34.49,-114.578 l -0.15,2.839 c 0,-9.57 4.12,-18.781 11.31,-25.242 6.56,-5.918 15.13,-8.918 23.9,-8.808 8.77,-0.11 17.33,2.89 23.91,8.808 7.16,6.461 11.29,15.672 11.29,25.242 l -0.13,-2.839 c 4.39,47.457 19.9,84.558 34.49,114.578 10.22,21.05 28.63,45.211 40.82,61.191 8.01,10.508 11.97,15.758 14.58,20.59 11.18,20.617 17.08,44.008 17.08,67.598 0,78.332 -63.72,142.043 -142.04,142.043"
             style="fill:#ffffff;fill-opacity:1;fill-rule:nonzero;stroke:none"
             id="path4916"
             inkscape:connector-curvature="0" /><path
             d="m 1227.13,879.84 c -61.34,0 -111.03,-49.719 -111.03,-111.031 0,-19.149 4.84,-37.137 13.35,-52.86 4.98,-9.199 39.07,-48.148 56.02,-82.949 14.66,-30.18 32.46,-71.289 37.46,-125.309 0,-2.011 2.17,-3.441 4.2,-3.242 2.02,-0.199 4.19,1.231 4.19,3.242 5.01,54.02 22.81,95.129 37.48,125.309 16.93,34.801 51.03,73.75 56.01,82.949 8.52,15.723 13.35,33.711 13.35,52.86 0,61.312 -49.68,111.031 -111.03,111.031"
             style="fill:#1a64b7;fill-opacity:1;fill-rule:nonzero;stroke:none"
             id="path4918"
             inkscape:connector-curvature="0" /><path
             d="m 1227.14,816.82 c 25.17,0 45.61,-20.41 45.61,-45.629 0,-25.203 -20.44,-45.601 -45.61,-45.601 -25.22,0 -45.63,20.398 -45.63,45.601 0,25.219 20.41,45.629 45.63,45.629"
             style="fill:#ffffff;fill-opacity:1;fill-rule:nonzero;stroke:none"
             id="path4920"
             inkscape:connector-curvature="0" /></g></g></g></g></svg>