<?xml version="1.0" encoding="utf-8"?>
<!-- Generator: Adobe Illustrator 17.0.2, SVG Export Plug-In . SVG Version: 6.00 Build 0)  -->
<!DOCTYPE svg PUBLIC "-//W3C//DTD SVG 1.1//EN" "http://www.w3.org/Graphics/SVG/1.1/DTD/svg11.dtd">
<svg version="1.1" id="pbdb-logo" xmlns="http://www.w3.org/2000/svg" xmlns:xlink="http://www.w3.org/1999/xlink" x="0px" y="0px"
	 width="1012px" height="759px" viewBox="0 0 1012 759" enable-background="new 0 0 1012 759" xml:space="preserve">
<g>
	<g>
		<g>
			<path fill="#9CC2A6" d="M336.87,475.692l25.539,8.185l29.982-105.517l48.301,36.506l3.194-8.791
				c-31.829-20.845-52.862-56.816-52.862-97.695c0-30.115,11.413-57.567,30.146-78.27l0,0l-126.121-126.12
				c-112.626,113.238-112.45,296.318,0.532,409.332l2.599,2.597L336.87,475.692z M280.909,328.387
				c-3.836,3.899-7.504,7.967-11.127,12.069c-6.416,7.278-12.743,14.64-19.107,21.965c-0.328,0-0.655,0-0.983,0
				c0.745-1.515,1.237-3.238,2.272-4.513c6.386-7.863,13.078-15.48,19.282-23.481c3.061-3.949,6.237-8.254,7.667-12.916
				c1.828-5.958,0.849-12.315-1.836-18.167c-4.409-9.609-9.872-18.558-16.259-27.008c-5.102-6.755-10.367-13.48-13.123-21.695
				c-1.214-3.623-1.128-4.003,1.989-6.336c0.782-0.587,1.586-1.179,2.234-1.901c4.298-4.785,11.321-6.617,16.981-2.558
				c1.798,1.29,3.768,1.101,5.783,0.041c1.482-0.778,3.232-1.031,4.778-1.715c3.407-1.503,6.96-1.935,10.639-1.842
				c0.592,0.015,1.195-0.383,1.799-0.592c1.303,0,2.618,0,3.925,0c2.495,0.685,5.013,1.318,7.492,2.067
				c3.258,0.987,6.603,1.813,9.686,3.2c1.724,0.774,3.18,1.393,5.072,0.89c2.126-0.566,4.286-0.525,5.973,1.147
				c4.904,4.865,9.823,9.717,14.53,14.771c0.644,0.697,0.555,2.771,0,3.75c-1.4,2.465-3.151,4.763-4.96,6.962
				c-3.106,3.772-6.401,7.386-9.529,11.144c-0.51,0.618-0.555,1.631-0.812,2.461c0.272,0.247,0.544,0.495,0.819,0.743
				c2.216-1.4,4.539-2.651,6.621-4.229c5.589-4.23,10.647-9.183,17.186-12.097c3.88-1.73,4.275-1.92,6.74,1.443
				c2.979,4.063,5.452,8.5,8.479,12.524c1.858,2.474,2.357,4.979,1.709,7.802c-0.585,2.577-0.577,4.93,0.916,7.288
				c0.599,0.946,0.495,2.35,0.663,3.551c0.238,1.611,0.186,3.309,0.697,4.819c1.393,4.106,0.268,7.453-2.387,10.649
				c-0.797,0.962-1.054,2.432-1.382,3.713c-0.48,1.862-0.395,3.981-1.274,5.605c-1.571,2.93-1.925,5.79-1.166,8.956
				c0.555,2.292,0.373,4.541-1.106,6.547c-1.84,2.495-3.489,5.154-5.522,7.47c-1.263,1.433-3.061,2.715-5.225,1.679
				c-3.675-1.754-7.384-3.465-10.892-5.515c-10.427-6.094-20.623-12.598-31.202-18.406c-3.821-2.098-8.409-3.208-12.777-3.809
				C289.492,324.218,284.562,324.672,280.909,328.387z"/>
			<path fill="#9CC2A6" d="M585.997,394.94c-20.705,18.732-48.156,30.145-78.269,30.145c-22.037,0-42.648-6.114-60.232-16.734l0,0
				l-4.812,13.245l-47.947-36.236l-29.496,103.804l-27.168-8.708l-36.944,38.412l1.617,1.616c0.008,0.008,0.019,0.019,0.023,0.026
				c113.009,113.009,296.113,113.188,409.353,0.555L585.997,394.94z M557.777,507.875c-0.264,2.007-0.737,3.999-1.281,5.958
				c-0.521,1.884-1.251,3.709-1.888,5.564c-0.019,0.045-0.045,0.1-0.082,0.119c-2.678,1.095-2.89,4.309-5.05,5.872
				c-1.028,0.745-1.84,1.803-2.886,2.51c-2.23,1.497-3.139,3.918-4.453,6.055c-1.192,1.94-1.937,2.301-4.26,2.089
				c-1.013-0.093-2.022,0.007-2.7,1.057c-0.447,0.689-1.08,1.143-2.093,0.965c-0.48-0.086-1.188,0.305-1.586,0.693
				c-1.214,1.188-2.67,1.557-4.282,1.825c-0.927,0.153-2.156,0.659-2.558,1.393c-1.147,2.082-3.169,2.201-4.986,2.406
				c-1.873,0.212-3.665-0.339-5.281-1.717c-2.514-2.16-7.172-1.635-9.723,0.592c-1.139,1.002-2.718,1.512-3.854,2.521
				c-1.903,1.698-4.126,3.344-5.273,5.504c-1.553,2.923-4.491,4.674-5.757,7.757c-0.436,1.057-1.516,1.851-2.298,2.767
				c-0.253,0.291-0.625,0.54-0.737,0.879c-0.659,2.015-2.454,3.165-3.597,4.808c-0.957,1.37-1.947,2.718-3.02,3.999
				c-0.439,0.529-1.087,1.106-1.709,1.21c-1.445,0.242-2.26,1.214-2.834,2.283c-1.553,2.879-3.858,4.636-7.034,5.303
				c-0.328,0.067-0.637,0.246-0.983,0.384c-1.367-0.968-0.961-2.167-0.79-3.374c0.443-3.024,1.788-5.735,2.931-8.509
				c1.422-3.463,3.02-6.856,4.524-10.289c1.002-2.294,1.598-4.875,3.05-6.833c1.825-2.461,2.26-5.273,3.132-7.992
				c1.05-3.262,2.067-6.539,2.938-9.853c0.514-1.951,0.588-3.966-0.879-5.686c-0.13-0.16-0.212-0.469-0.16-0.659
				c0.286-0.983,0.625-1.947,0.849-2.611c-0.529-0.901-0.89-1.553-1.281-2.178c-0.428-0.697-0.477-1.765-1.691-1.735
				c-0.127,0.004-0.331-0.313-0.387-0.514c-0.615-2.208-1.233-4.413-1.791-6.636c-0.443-1.765-0.89-3.534-1.188-5.325
				c-0.663-3.933-1.348-7.861,0.279-11.784c0.488-1.171,0.354-2.59,0.704-3.841c0.291-1.024,0.909-1.951,1.314-2.947
				c0.503-1.227,0.793-2.56,1.434-3.702c0.935-1.659,0.991-3.936,3.247-4.746c0.421-0.151,0.64-0.819,1.002-1.203
				c1.668-1.776,3.244-3.657,5.053-5.263c1.43-1.261,3.173-2.158,4.752-3.257c0.908-0.637,2.029-1.182,2.592-2.067
				c1.173-1.823,2.964-2.585,4.8-3.102c2.383-0.67,4.871-0.929,7.314-1.385c2.808-0.523,5.619-1.071,8.427-1.599
				c1.765-0.333,3.541-0.643,5.31-0.98c0.38-0.072,0.972-0.106,1.091-0.346c0.789-1.622,2.8-1.428,3.824-2.672
				c0.175-0.209,0.473-0.4,0.745-0.437c2.339-0.315,3.601-2.138,4.994-3.683c1.173-1.3,2.167-2.702,4.007-3.18
				c0.488-0.128,0.942-0.695,1.243-1.168c0.79-1.242,1.4-2.61,2.253-3.802c0.983-1.367,2.104-2.652,3.258-3.877
				c1.877-1.987,3.824-3.903,5.753-5.839c0.339-0.342,0.685-0.752,1.113-0.92c0.507-0.198,1.159-0.324,1.639-0.166
				c0.276,0.088,0.402,0.81,0.469,1.265c0.287,1.845-0.183,3.539-0.98,5.206c-0.328,0.678-0.246,1.542-0.521,2.251
				c-0.607,1.533-1.34,3.015-1.985,4.53c-0.257,0.596-0.387,1.242-0.644,1.836c-0.316,0.752-0.678,1.486-1.065,2.204
				c-0.398,0.732-0.961,1.393-1.266,2.156c-0.551,1.387-0.663,3.035-1.493,4.199c-1.828,2.579-1.325,5.29-1.017,8.044
				c0.101,0.914,0.231,1.83,0.417,2.731c0.101,0.514,0.216,1.121,0.551,1.475c1.516,1.609,2.32,3.53,2.882,5.631
				c0.171,0.64,0.76,1.283,1.326,1.683c1.732,1.229,2.875,2.823,3.538,4.83c1.117,3.402,1.843,6.876,2.428,10.41
				c0.484,2.88,1.478,5.677,2.052,8.552C557.945,504.922,557.959,506.445,557.777,507.875z"/>
		</g>
		<path fill="#9CC2A6" d="M719.855,103.419c-0.007-0.007-0.015-0.015-0.022-0.022l-0.116,0.116l-7.139-7.189l0.09-0.091
			C599.469-16.941,415.964-16.932,302.772,96.256c-0.194,0.19-0.369,0.384-0.559,0.572l126.074,126.075l-0.001,0.001
			c20.834-19.373,48.753-31.228,79.441-31.228c27.638,0,53.031,9.618,73.027,25.68l0,0l2.457-13.102l33.52,10.558l21.635-89.113
			l27.854,18.189l38.56-37.56l-3.623-3.719l14.104-3.581l-3.949,14.006l-3.623-3.719l-40.952,39.891l-25.711-16.79l-21.295,87.712
			l-33.287-10.485l-2.021,10.779l0,0c24.519,21.395,40.017,52.869,40.017,87.959c0,30.687-11.857,58.606-31.232,79.441
			L719.286,513.9c0.19-0.186,0.384-0.365,0.57-0.551C833.058,400.144,833.058,216.618,719.855,103.419z M422.503,68.146
			c1.877-0.141,2.826,1.182,3.739,2.461c5.146,7.234,12.579,11.483,20.735,13.613c10.453,2.735,18.284,9.088,26.075,15.83
			c1.832,1.587,3.552,3.3,5.325,4.949c0.115,0.123,0.234,0.246,0.35,0.363c-2.83,8.494-9.03,11.71-17.591,11.216
			c1.125-1.832-0.063-3.225-0.838-4.744c-5.69-11.125-14.385-19.416-24.566-26.374c-5.37-3.672-9.734-8.371-13.227-13.868
			C422.503,70.444,422.503,69.297,422.503,68.146z M569.906,99.854c1.4,1.441,2.275,3.7,0.875,5.083
			c-3.765,3.735,0.22,6.923,0.298,10.335l-2.003,5.32c0,0,0.011-0.008,0.019-0.013c-0.559,0.618-0.916,1.609-1.46,3.329
			c-2.082,6.569-5.779,12.045-10.758,16.719c-1.732-1.968-4.662-2.555-6.509-2.473c-4.555,0.199-8.368-3.067-12.974-2.037
			c-1.668,0.373-3.374-0.64-4.573-1.983c-2.584-2.879-3.486-1.132-4.104,1.438c-0.1,0.411-0.052,0.858-0.082,1.287
			c-0.473,7.189-2.96,9.058-10.065,7.038c-3.05-0.864-4.629-1.184-4.547,2.953c0.063,2.912-2.487,4.761-5.031,5.951
			c-2.067,0.968-4.241,1.855-6.465,2.32c-9.161,1.905-16.661,6.335-23.133,13.183c-6.01,6.36-14.877,7.195-20.776,3.061
			c-2.279-1.599-2.555-2.89-0.022-4.409c4.163-2.495,7.794-5.927,12.679-7.156c0.551-0.138,1.449-0.309,1.538-0.643
			c1.862-6.777,8.725-6.399,13.242-9.351c0.231-0.151,0.432-0.344,0.641-0.521c-2.424-0.615-2.391-0.529-7.276,1.385
			c-3.441,1.348-6.718,2.102-10.777,2.102c-5.34-0.002-11.924-0.266-16.418,5.506c-2.73,3.506-6.785,5.977-8.632,10.39
			c-0.723,1.717-2.164,1.728-3.359,0.18c-6.23-8.023-10.058-16.81-7.597-27.166c0.838-3.536,0.622-6.308-1.877-9.077
			c-2.23-2.474-3.407-5.619-4.249-8.85c-1.464-5.595,0.391-7.608,6.126-6.472c2.793,0.553,5.441,1.553,8.375,1.741
			c4.022,0.265,7.947,0.458,11.794-0.938c-6.018,3.7-12.106,7.325-14.802,14.486c4.629-6.388,10.62-10.732,18.351-12.488
			c5.858-1.332,11.764-2.437,17.476-4.385c2.923-0.995,5.414-2.689,5.712-5.765c0.436-4.508,2.938-6.912,6.718-8.61
			c1.136-0.512,2.521-0.869,3.404-2.54c-4.83,0.931-7.846,3.815-10.933,6.578c-0.119-0.117-0.238-0.24-0.353-0.365
			c0.834-1.759,0.096-3.327-0.551-4.94c-4.685-11.703-11.894-21.498-21.792-29.339c-5.091-4.031-9.578-8.667-12.661-14.467
			c-0.793-1.486-1.996-3.452-0.22-4.657c1.888-1.279,3.195,0.773,4.089,2.084c4.454,6.532,10.773,10.466,17.778,13.76
			c12.162,5.716,22.109,14.218,30.026,25.094c0.626,0.856,0.805,2.472,2.305,2.106c1.21-0.296,1.49-1.674,1.873-2.724
			c1.832-4.962,2.067-10.084,1.203-15.249c-0.778-4.664-1.698-9.302-2.581-13.948c-0.384-1.987-0.782-13.691,6.319-16.381
			c1.695-0.642,2.268-1.815,2.574-3.56c0.67-3.856,2.971-5.636,7.053-4.98c3.62,0.581,6.68-1.047,9.54-3.001
			c4.093-2.797,5.984-2.633,9.038,1.288c1.62,2.078,3.463,2.739,6.003,2.177c5.728-1.268,7.262-0.311,8.45,5.152
			c0.559,2.573,1.702,4.061,4.688,3.824c3.575-0.283,5.936,1.393,5.79,5.215c-0.104,2.717,1.061,3.8,3.534,4.452
			c4.327,1.143,5.37,2.994,4.04,7.211c-0.667,2.095-0.108,3.13,1.653,4.195c4.834,2.927,5.173,4.366,2.246,9.282
			c-1.624,2.73-1.75,5.07,0.964,7.18c3.303,2.569,3.452,5.469,0.54,8.405C568.118,95.359,567.548,97.422,569.906,99.854z
			 M782.786,316.599c1.253,7.783-4.491,20.491-11.338,24.31c-5.651,3.149-11.311,6.295-16.804,9.703
			c-1.328,0.823-2.458,2.538-2.918,4.072c-1.163,3.893-1.856,7.926-2.813,11.885c-1.249,5.165-4.768,7.366-9.889,6.249
			c-1.402-0.307-2.806-0.628-4.182-1.039c-4.201-1.253-7.887-1.378-12.123,1.143c-5.616,3.346-11.721,2.279-17.39-1.173
			c-1.33-0.81-3.298-1.05-4.886-0.853c-2.957,0.365-5.845,1.266-8.772,1.907c-4.752,1.043-8.377-0.899-9.723-5.588
			c-1.318-4.601-2.102-9.355-3.461-13.941c-0.486-1.639-1.653-3.474-3.052-4.376c-6.243-4.022-12.756-7.627-19.009-11.633
			c-1.815-1.166-3.668-2.914-4.513-4.834c-2.892-6.55-5.681-13.097-3.674-20.748c0.763-2.914-0.268-6.381-0.816-9.535
			c-1.227-7.105-0.594-13.399,5.426-18.534c2.026-1.73,3.197-4.737,4.163-7.377c2.368-6.476,6.342-10.561,13.445-11.9
			c2.921-0.549,5.902-2.649,8.09-4.817c4.936-4.893,10.44-6.435,17.282-5.603c3.441,0.419,7.418-0.296,10.602-1.726
			c6.144-2.759,12.036-3.121,17.901-0.013c3.905,2.068,7.748,2.616,12.069,1.903c6.06-0.998,11.43,0.886,15.64,5.333
			c2.881,3.044,6.016,5.026,10.231,5.914c5.683,1.201,9.377,5.23,11.201,10.641c1.363,4.044,3.527,7.303,6.217,10.647
			c2.598,3.229,4.56,12.168,4.318,12.306c-0.447,2.348-1.138,4.681-1.281,7.047C782.516,309.503,782.229,313.136,782.786,316.599z"
			/>
	</g>
	<g id="triceratops-details">
		<path fill="#9CC2A6" d="M452.108,129.654c-2.175-0.173-3.229,1.402-3.396,3.164c-0.369,3.698-1.117,6.954-4.622,9.124
			c-1.247,0.773-1.076,2.562-0.57,3.99c0.324,0.907,1.076,1.274,2.007,1.327c0.92,0.048,10.386-5.638,10.684-6.479
			c0.193-0.525,0.286-1.088,0.424-1.646c-1.035-1.886-0.823-3.893-0.927-5.891C455.601,131.125,454.238,129.824,452.108,129.654z"/>
		<path fill="#9CC2A6" d="M490.423,119.685c-0.22-2.59-1.873-3.901-4.234-3.992c-2.946-0.11-2.097,2.413-2.368,3.61
			c-0.198,3.588,1.076,6.018,3.601,7.788c0.913,0.641,1.948,1.697,3.061,1.119c1.53-0.797,0.499-2.234,0.365-3.437
			C490.654,123.083,490.564,121.381,490.423,119.685z"/>
		<path fill="#9CC2A6" d="M505.873,98.181c13.149-4.039,27.423-33.727,20.381-42.212C524.638,72.729,517.711,86.624,505.873,98.181z
			"/>
	</g>
	<g id="other-thing">
		<path fill-rule="evenodd" clip-rule="evenodd" fill="#9CC2A6" d="M494.791,513.643c0.827,0.484,1.404,0.83,1.992,1.165
			c0.369,0.212,0.734,0.548,1.125,0.588c1.009,0.116,2.033,0.104,3.05,0.134c1.936,0.048,3.825-0.097,5.355-1.475
			c0.611-0.548,1.125-1.206,1.728-1.762c2.41-2.204,2.715-4.923,1.963-7.898c-0.167-0.659-0.741-1.393-0.574-1.907
			c0.447-1.356-0.011-2.477-0.685-3.456c-1.266-1.843-2.461-3.96-5.31-3.437c-0.182,0.034-0.387-0.013-0.574-0.061
			c-1.389-0.37-3.552,0.345-4.398,1.383c-0.547,0.674-1.177,1.289-1.81,1.888c-1.15,1.088-2.48,2.026-3.445,3.255
			c-0.644,0.811-1.713,1.709-1.057,3.106c0.096,0.212-0.268,0.641-0.417,0.968c0.119-0.041,0.235-0.085,0.354-0.127
			c0.242,0.506,0.57,0.987,0.711,1.519c0.488,1.825,0.16,3.899,1.739,5.392C494.78,513.148,494.787,513.628,494.791,513.643z"/>
		<path fill-rule="evenodd" clip-rule="evenodd" fill="#9CC2A6" d="M525.632,528.393c0.592-1.121,1.94-1.791,1.356-3.277
			c-0.03-0.071,0.134-0.242,0.231-0.343c1.981-2.078,1.709-4.759,1.918-7.299c0.03-0.305-0.305-0.834-0.585-0.938
			c-2.357-0.86-3.761-3.642-6.714-3.281c-0.186,0.023-0.391-0.294-0.618-0.354c-0.734-0.194-1.601-0.674-2.193-0.447
			c-1.486,0.562-3.311-0.097-4.547,1.33c-0.171,0.201-0.745,0.034-1.128,0.082c-0.424,0.056-0.957,0.03-1.236,0.271
			c-2,1.717-2.837,4.07-3.37,6.55c-0.052,0.227,0.149,0.607,0.354,0.771c1.002,0.804,0.816,1.981,1.057,3.035
			c0.097,0.421,0.44,0.8,0.726,1.158c0.201,0.246,0.54,0.384,0.726,0.637c1.456,1.914,4.629,2.934,6.994,2.305
			C520.88,527.984,523.185,527.399,525.632,528.393z"/>
		<path fill-rule="evenodd" clip-rule="evenodd" fill="#9CC2A6" d="M503.702,481.629c0.153,1.83,0.193,3.508,0.45,5.146
			c0.171,1.065,0.469,2.201,1.058,3.078c0.525,0.795,1.452,1.715,2.297,1.827c2.718,0.357,5.575,0.989,8.01-1.057
			c0.112-0.093,0.264-0.13,0.387-0.212c1.367-0.913,2.737-1.83,4.097-2.75c0.924-0.622,1.173-1.495,0.953-2.551
			c-0.056-0.278-0.186-0.643-0.067-0.838c0.961-1.564,0.469-3.031,0.104-4.679c-0.346-1.546-1.136-1.691-2.316-1.769
			c-0.417-0.026-0.897-0.117-1.221-0.352c-1.348-0.972-2.622-2.042-3.981-3.003c-0.212-0.149-0.801-0.052-1.039,0.145
			c-1.218,1.009-2.342,2.141-3.583,3.128C507.15,479.106,505.371,480.378,503.702,481.629z"/>
		<path fill-rule="evenodd" clip-rule="evenodd" fill="#9CC2A6" d="M513.902,502.844c-0.168,0.052-0.335,0.104-0.507,0.156
			c0.216,0.92,0.149,2.112,0.704,2.715c1.318,1.43,2.752,2.938,5.061,2.61c0.376-0.052,0.778,0.037,1.158,0.123
			c1.795,0.406,3.497,0.916,4.908-1.024c1.702-2.339,3.225-4.644,3.806-7.604c0.506-2.585-0.35-4.134-2.502-5.262
			c-0.216-0.116-0.54-0.242-0.581-0.421c-0.551-2.344-2.599-2.067-4.223-2.316c-2.38-0.365-3.914,1.594-5.697,2.631
			c-1.233,0.715-2.022,2.33-2.789,3.666c-0.346,0.592-0.305,1.512-0.19,2.242C513.187,501.209,513.608,502.017,513.902,502.844z"/>
		<path fill-rule="evenodd" clip-rule="evenodd" fill="#9CC2A6" d="M539.828,453.193c-0.428,0.495-0.875,0.978-1.277,1.488
			c-0.715,0.895-1.247,2.053-2.156,2.64c-0.778,0.505-1.285,0.993-1.739,1.788c-0.432,0.749-1.184,1.387-1.929,1.871
			c-2.379,1.544-4.908,2.862-7.206,4.513c-2.316,1.668-3.716,4.677-7.206,4.595c-0.462-0.01-0.935,0.776-1.404,1.192
			c0.641,0.685,0.529,2.078,2.037,1.951c2.756-0.229,5.467-0.056,8.215,0.504c3.128,0.643,3.526,0.278,5.161-2.504
			c0.749-1.263,1.586-2.465,2.368-3.705c1.184-1.873,2.644-3.642,3.459-5.666c1.017-2.516,2.16-4.698,4.108-6.729
			c1.784-1.856,2.659-4.604,3.828-7.012c0.156-0.315-0.331-0.938-0.521-1.417c-0.398,0.274-0.827,0.517-1.188,0.836
			c-0.387,0.346-0.663,0.836-1.072,1.138C541.652,449.886,540.36,451.305,539.828,453.193z"/>
		<path fill-rule="evenodd" clip-rule="evenodd" fill="#9CC2A6" d="M534.123,478.173c-1.635,0.384-2.927,0.7-4.23,0.994
			c-0.957,0.216-1.493,0.888-2.164,1.56c-1.534,1.527-1.627,2.813-1.199,5.05c0.767,4.037,2.99,7.603,6.923,8.714
			c1.095,0.309,2.022,0.253,2.518-0.993c0.141-0.357,0.342-0.765,0.64-0.97c1.966-1.352,2.518-3.629,3.664-5.513
			c0.313-0.518,0.45-1.192,0.864-1.592c1.114-1.084,1.166-1.892,0.175-3.115c-0.975-1.192-1.918-2.423-2.755-3.711
			C537.091,476.341,535.344,476.242,534.123,478.173z"/>
		<path fill-rule="evenodd" clip-rule="evenodd" fill="#9CC2A6" d="M544.494,510.035c1.672-0.451,1.62-0.63,1.132-2.264
			c-0.358-1.184-0.272-2.368-1.382-3.363c-0.455-0.406-0.656-1.08-1.456-1.248c-1.035-0.216-1.803-0.614-2.283-1.843
			c-1.028-2.61-4.007-3.337-5.854-1.382c-1.56,1.657-3.001,3.575-2.938,6.115c0.011,0.432-0.008,0.901-0.16,1.3
			c-0.831,2.26-0.536,4.476,0.16,6.692c0.365,1.169,1.065,1.571,2.238,1.068c0.331-0.141,0.726-0.234,1.083-0.209
			c2.112,0.145,4.219,0.436,6.327,0.447c0.655,0.004,1.646-0.566,1.907-1.139C543.868,512.902,544.114,511.431,544.494,510.035z"/>
		<path fill-rule="evenodd" clip-rule="evenodd" fill="#9CC2A6" d="M493.99,519.587c-0.909,0.294-2.004,0.372-2.685,0.938
			c-0.79,0.652-1.564,1.684-1.702,2.652c-0.149,0.95,0.372,2.085,0.831,3.027c0.547,1.113,1.404,2.067,2.015,3.151
			c0.473,0.834,0.7,1.802,1.165,2.637c0.719,1.289,1.542,2.514,2.331,3.761c0.1,0.164,0.205,0.421,0.346,0.455
			c1.3,0.302,2.603,0.73,3.925,0.789c1.255,0.056,2.536-0.283,4.156-0.492c0.238-0.92,0.611-2.182,0.883-3.463
			c0.127-0.592,0.056-1.218,0.082-1.832c0.011-0.264,0.123-0.562,0.045-0.793c-0.819-2.432-2.324-4.335-4.487-5.712
			c-2-1.274-4.022-2.514-5.988-3.832C494.519,520.614,494.322,520.071,493.99,519.587z"/>
		<path fill-rule="evenodd" clip-rule="evenodd" fill="#9CC2A6" d="M504.235,541.58c-1.095-0.733-2.153-1.448-3.217-2.148
			c-0.116-0.079-0.287-0.104-0.421-0.09c-1.091,0.145-2.193,0.242-3.258,0.48c-1.422,0.313-2.487,1.031-2.793,2.625
			c-0.097,0.532-0.518,1.039-0.883,1.482c-0.819,0.987-1.754,1.885-2.532,2.901c-0.782,1.024-1.378,2.19-2.156,3.221
			c-1.303,1.721-1.966,3.817-3.943,5.195c-1.37,0.953-2.071,2.893-3.024,4.424c-0.577,0.924-0.898,2.078-1.635,2.834
			c-1.921,1.963-2.476,4.577-3.586,6.923c-0.194,0.402-0.223,0.979-0.097,1.404c0.078,0.261,0.804,0.618,0.893,0.54
			c1.117-1.017,2.6-1.929,3.151-3.225c0.7-1.635,1.933-2.83,2.744-4.346c0.913-1.71,2.231-3.203,3.415-4.756
			c0.92-1.203,1.877-2.379,2.868-3.53c1.441-1.668,2.919-3.307,4.398-4.942c0.797-0.879,1.601-1.687,1.806-2.983
			c0.071-0.466,0.86-0.875,1.393-1.203c1.136-0.708,2.376-1.266,3.467-2.03C501.997,543.542,503.047,542.559,504.235,541.58z"/>
		<path fill-rule="evenodd" clip-rule="evenodd" fill="#9CC2A6" d="M483.694,500.375c-1.203-0.916-3.731,0.112-5.445,2.134
			c-0.633,0.741-0.294,4.331,0.938,5.478c0,1.594,0.123,2.86-0.026,4.092c-0.302,2.48,0.823,4.134,2.722,5.515
			c1.389,1.009,2.901,0.536,4.152,0.112c0.872-0.294,1.505-1.553,2.037-2.495c0.35-0.633,0.421-1.467,0.462-2.216
			c0.048-0.856-0.067-1.724-0.134-2.588c-0.045-0.603-0.082-1.214-0.22-1.802c-0.138-0.588-0.484-1.132-0.581-1.724
			c-0.387-2.283-1.091-4.454-2.301-6.42C484.922,499.85,484.275,499.213,483.694,500.375z"/>
		<path fill-rule="evenodd" clip-rule="evenodd" fill="#9CC2A6" d="M491.506,497.195c0.015,0.108,0.041,0.212,0.063,0.316
			c0.38-0.179,0.819-0.291,1.132-0.555c0.935-0.771,1.862-1.557,2.707-2.423c0.522-0.532,1.035-1.16,1.281-1.843
			c0.365-1.013,0.778-1.877,1.624-2.618c1.303-1.156,1.274-3.912-0.097-4.945c-0.953-0.715-2.171-1.059-3.233-1.637
			c-2.186-1.192-2.689-1.145-4.472,0.603c-2.067,2.026-2.946,4.69-3.948,7.295c-0.477,1.24-1.519,2.445-0.048,3.733
			c0.737,0.644,1.289,1.644,2.126,1.998C489.462,497.467,490.538,497.195,491.506,497.195z"/>
		<path fill-rule="evenodd" clip-rule="evenodd" fill="#9CC2A6" d="M537.738,533.953c1.151-0.726,2.413-1.143,3.08-2.022
			c1.046-1.37,1.668-3.061,2.506-4.599c1.49-2.733,1.482-2.879-0.681-5.206c-1.427-1.534-3.061-1.624-4.16,0.089
			c-0.678,1.054-1.504,1.311-2.525,1.635c-1.344,0.432-2.852,0.737-3.169,2.569c-0.063,0.38-0.693,0.663-1.08,1.002
			c0.454,1.713,4.122,4.882,5.746,4.893C537.534,532.754,537.612,533.208,537.738,533.953z"/>
		<path fill-rule="evenodd" clip-rule="evenodd" fill="#9CC2A6" d="M513.537,533.965c-0.03-0.093-0.067-0.187-0.101-0.28
			c-0.439,0-0.886-0.06-1.314,0.011c-1.159,0.19-2.693,2.435-2.063,3.057c1.035,1.013,2.212,1.899,3.396,2.741
			c0.54,0.38,1.43,0.361,1.828,0.815c1.329,1.516,2.826,1.37,4.632,1.166c1.199-0.138,1.035-1.154,1.672-1.43
			c1.639-0.715,1.385-1.985,1.177-3.315c-0.048-0.302,0.063-0.692,0.238-0.949c0.588-0.845,0.369-1.635-0.615-2.07
			c-0.458-0.209-0.867-0.596-1.344-0.685c-1.076-0.205-2.219-0.499-3.273-0.339C516.33,532.911,514.945,533.521,513.537,533.965z"/>
		<path fill-rule="evenodd" clip-rule="evenodd" fill="#9CC2A6" d="M550.236,502.341c3.795-3.664,1.139-7.483,0.365-11.246
			c0.339-0.171,0.656-0.335,1.24-0.631c-0.871-0.534-1.862-0.791-2.138-1.38c-0.61-1.32-1.81-1.208-2.763-1.32
			c-1.087-0.129-2.405,0.17-2.305,1.752c0.138,2.197,0.402,4.391,0.667,6.58c0.108,0.888,0.287,1.78,0.555,2.637
			c0.279,0.909,0.466,2.093,1.117,2.581C547.826,501.946,549.104,502.017,550.236,502.341z"/>
		<path fill-rule="evenodd" clip-rule="evenodd" fill="#9CC2A6" d="M484.126,543.978c0.145,0.056,0.29,0.112,0.432,0.168
			c0.343-0.38,0.704-0.749,1.028-1.143c0.793-0.961,1.467-2.048,2.383-2.875c1.396-1.263,3.18-2.205,2.681-4.573
			c-0.037-0.186,0.167-0.447,0.305-0.652c1.173-1.788,0.931-3.642,0.048-5.392c-0.473-0.931-1.263-1.721-2.577-1.415
			c-0.48,0.112-1.017,0.019-1.497,0.019c-0.123,0.309-0.246,0.648-0.387,0.979c-0.343,0.801-0.708,1.475,0.111,2.368
			c0.398,0.428,0.254,1.531,0.067,2.257c-0.197,0.73-0.838,1.337-1.11,2.059c-0.335,0.916-0.525,1.888-0.711,2.853
			c-0.059,0.32,0.186,0.696,0.127,1.017C484.759,541.096,484.431,542.537,484.126,543.978z"/>
		<path fill-rule="evenodd" clip-rule="evenodd" fill="#9CC2A6" d="M500.243,477.05c1.549-0.333,3.433-0.613,5.239-1.16
			c1.817-0.551,2.819-3.171,1.81-4.768c-0.581-0.922-1.516-1.657-2.402-2.333c-0.469-0.358-1.33-0.741-1.739-0.544
			c-1.728,0.827-3.415,1.814-4.521,3.463c-0.186,0.283-0.153,0.827-0.03,1.181C499.055,474.174,499.591,475.425,500.243,477.05z"/>
		<path fill-rule="evenodd" clip-rule="evenodd" fill="#9CC2A6" d="M555.647,509.58c-0.022-1.002-1.717-2.666-2.815-2.618
			c-0.253,0.008-0.633,0.127-0.722,0.309c-1.263,2.506-3.694,4.398-3.754,7.545c-0.022,1.415,1.788,3.426,3.199,3.169
			c0.272-0.052,0.574-0.193,0.763-0.387C554.478,515.408,555.233,512.615,555.647,509.58z"/>
		<path fill-rule="evenodd" clip-rule="evenodd" fill="#9CC2A6" d="M541.027,470.15c-0.629,1.179-1.177,2.085-1.583,3.056
			c-0.123,0.298,0.056,0.838,0.272,1.139c1.27,1.815,2.145,3.931,4.096,5.236c1.37,0.918,2.655,1.968,3.973,2.961
			c-0.41-1.832-1.013-3.333-1.657-4.819c-0.678-1.579-1.218-3.249-2.145-4.673C543.261,471.928,542.051,471.124,541.027,470.15z"/>
	</g>
	<ellipse id="ocean" fill="#02598E" cx="507.936" cy="308.624" rx="112.803" ry="112.839"/>
	<g id="earth">
		<path fill="#439E55" d="M547.309,202.579c4.357,1.631,24.943,9.746,44.418,30.136c1.396,1.48,12.97,15.383,17.998,26.695
			c0.171,0.378,7.176,17.282,7.883,23.043c0.648,0.799-0.432,1.788-0.395,2.674c0.015,0.374-0.29,0.521-0.566,0.674
			c-0.156,0.091-0.313,0.026-0.465-0.021c-0.156-0.047-0.309-0.101-0.462-0.16c-0.197-0.136-0.413-0.289-0.462-0.538
			c-0.354-1.901-1.553-3.441-2.205-5.217c-0.22-0.696-0.473-1.382-0.957-1.951c-0.335-0.57-0.719-1.106-1.069-1.668
			c-0.138-0.484-0.447-0.864-0.752-1.247c-0.674-0.754-0.946-1.735-1.471-2.574c-0.108-0.164-0.223-0.318-0.343-0.473
			c-0.987-1.998-2.596-3.472-4.141-5.018c-0.559-0.562-1.08-1.175-1.46-1.884c-0.339-0.63-0.79-1.16-1.385-1.568
			c-0.871-1.147-2.015-2.035-2.961-3.118c-0.063-0.067-0.134-0.134-0.201-0.203c-0.793-0.862-1.918-1.243-2.826-1.934
			c-0.562-0.413-1.158-0.769-1.792-1.069c-1.27-0.711-2.458-1.545-3.616-2.428c-1.613-0.981-3.359-1.745-4.819-2.975
			c-0.849-0.668-1.639-1.414-2.51-2.06c-0.074-0.056-0.149-0.116-0.227-0.171c-0.633-0.644-1.464-1.054-2.052-1.746
			c-0.078-0.121-0.172-0.236-0.272-0.343c-0.521-0.423-1.263-0.592-1.546-1.294c-0.577-0.687-1.352-1.132-2.041-1.681
			c-0.92-0.862-1.836-1.724-2.692-2.657c-0.484-0.683-1.099-1.234-1.746-1.743c-0.343-0.229-0.51-0.62-0.834-0.877
			c-0.216-0.177-0.387-0.497-0.231-0.821c0.432-0.937,0.48-2.076,1.512-2.694c0.372-0.225,0.652-0.616,0.964-0.933
			c0.067-0.065,0.134-0.136,0.205-0.203c0.16-0.212,0.477-0.328,0.41-0.674c-0.384-0.419-0.927-0.521-1.396-0.771
			c-0.838-0.387-1.717-0.7-2.465-1.268c-0.078-0.065-0.167-0.129-0.253-0.192c-0.693-0.62-1.449-1.145-2.245-1.622
			c-0.469-0.281-0.972-0.32-1.37-0.084c-1.37,0.802-2.774,0.445-4.178,0.249c-0.495-0.276-1.039-0.391-1.594-0.456
			c-1.557-0.518-3.087-1.128-4.67-1.592c-0.089-0.039-0.182-0.074-0.272-0.112c-1.702-0.397-3.4-0.961-5.102-0.011
			c-0.056,0.052-0.115,0.102-0.156,0.156c0.004,0.536,0.495,0.67,0.774,0.977c0.078,0.056,0.157,0.116,0.235,0.177
			c0.804,0.853,1.72,1.598,2.543,2.436c0.443,0.452,1.024,0.551,1.627,0.525c0.812-0.034,1.575,0.104,2.275,0.549
			c0.622,0.404,1.251,0.791,1.966,1.026c0.767,0.056,1.449,0.376,2.126,0.711c0.082,0.041,0.168,0.082,0.253,0.123
			c0.592,0.291,1.225,0.46,1.858,0.631c0.093,0.041,0.179,0.084,0.265,0.13c1.553,0.713,3.225,1.168,4.629,2.199
			c0.588,0.495,1.192,0.975,1.899,1.303c0.819,0.46,1.266,1.266,1.821,1.966c0.067,0.078,0.134,0.167,0.19,0.255
			c0.16,0.607,0.536,1.093,0.916,1.581c0.074,0.123,0.141,0.246,0.212,0.367c0.622,0.978,1.616,1.585,2.398,2.4
			c0.067,0.067,0.134,0.136,0.209,0.203c1.206,2.219,3.448,3.32,5.284,4.867c0.879,1.181,2.119,2.033,2.957,3.253
			c0.447,0.492,0.655,1.149,1.139,1.616c0.101,0.1,0.209,0.194,0.317,0.287c1.061,0.786,1.858,1.843,2.778,2.768
			c1.099,1.104,2.235,2.149,3.433,3.13c0.276,0.227,0.48,0.495,0.644,0.805c0.387,0.585,0.737,1.19,1.102,1.787
			c0.663,0.805,0.577,1.75,0.436,2.668c-0.149,0.938-1.613,1.264-2.443,0.566c-0.633-0.531-1.176-1.156-1.772-1.724
			c-0.086-0.065-0.16-0.136-0.234-0.21c-0.693-0.68-1.475-1.248-2.279-1.786c-1.631-1.093-2.711-2.724-4.022-4.135
			c-0.212-0.279-0.465-0.521-0.745-0.734c-0.361-0.506-0.845-0.897-1.285-1.333c-0.38-0.519-0.875-0.935-1.266-1.443
			c-0.48-0.532-0.801-1.186-1.314-1.7c0.789,0.991,1.471,2.037,2.022,3.199c1.08,2.285,2.115,4.608,3.545,6.716
			c0.384,0.715,0.95,1.261,1.594,1.733c0.48,0.656,1.121,1.175,1.564,1.864c0.555,0.959,1.445,1.614,2.171,2.422
			c0.667,0.708,1.143,1.549,1.683,2.342c0.063,0.076,0.123,0.153,0.179,0.231c0.435,0.644,0.845,1.303,1.091,2.05
			c0.16,0.374,0.313,0.75,0.447,1.132c0.287,0.612,0.413,1.29,0.76,1.883c0.056,0.087,0.108,0.175,0.16,0.264
			c0.719,1.547,1.851,2.903,2.164,4.649c0.119,0.657,0.212,1.287-0.011,1.925c-0.045,0.091-0.089,0.184-0.138,0.274
			c-0.856,1.435-1.843,2.8-2.383,4.409c-0.041,0.09-0.086,0.179-0.119,0.272c-0.343,0.989-0.853,1.883-1.549,2.665
			c-0.439,0.501-0.804,1.057-1.136,1.629c-0.421,0.747-1.181,0.989-1.91,1.272c-0.443,0.229-0.957,0.233-1.4,0.452
			c-1.05,0.574-2.216,1.004-2.685,2.268c-0.708,0.974-1.255,2.044-1.862,3.076c-0.674,1.182-1.251,2.411-1.907,3.605
			c-0.536,0.685-0.983,1.413-1.311,2.223c-0.752,1.847-2.171,3.176-3.53,4.555c-1.303,0.987-2.536,2.085-4.111,2.64
			c-0.086,0.052-0.175,0.095-0.268,0.13c-0.718,0.35-1.475,0.615-2.152,1.046c-0.086,0.056-0.168,0.108-0.253,0.159
			c-1.419,0.497-2.76,1.141-4.015,1.979c-0.085,0.056-0.171,0.103-0.264,0.143c-1.232-0.004-1.787,1.067-2.633,1.679
			c-0.54,0.389-0.998,0.858-1.396,1.387c-0.894,0.894-1.419,2-1.799,3.188c-0.034,0.092-0.071,0.186-0.097,0.278
			c-0.372,1.419-0.953,2.776-1.158,4.24c-0.041,0.095-0.082,0.192-0.123,0.291c-0.562,2.251-1.132,4.502-1.885,6.701
			c-0.041,0.095-0.082,0.194-0.116,0.292c-0.372,1.78-1.557,3.212-2.108,4.915c-0.786,1.721-1.951,3.184-3.109,4.653
			c-0.398,0.732-0.942,1.365-1.456,2.018c-0.06,0.077-0.119,0.153-0.178,0.231c-0.92,1.324-2.175,2.352-3.143,3.633
			c-0.06,0.074-0.127,0.143-0.198,0.214c-1.039,1.149-2.286,2.124-3.028,3.532c-0.052,0.08-0.104,0.157-0.16,0.236
			c-0.421,0.668-0.842,1.343-1.326,1.976c-0.473,0.411-0.842,0.92-1.221,1.409c-0.812,0.968-1.743,1.816-2.64,2.702
			c-0.283,0.272-0.622,0.408-0.991,0.488c-0.882,0.257-1.698,0.657-2.517,1.065c-0.674,0.209-1.3,0.562-2.007,0.657
			c-0.387,0.119-0.76,0.274-1.11,0.477c-1.091,0.469-2.204,0.873-3.329,1.242c-0.09,0.05-0.172,0.097-0.265,0.138
			c-0.942,0.179-1.754,0.693-2.637,1.039c-0.093,0.037-0.182,0.078-0.272,0.119c-1.024,0.536-2.134,0.855-3.199,1.273
			c-0.09,0.045-0.179,0.08-0.276,0.104c-0.771,0.138-1.538,0.305-2.227,0.704c-0.089,0.056-0.179,0.095-0.279,0.125
			c-2.264,0.43-4.335,1.38-6.39,2.37c-0.093,0.063-0.198,0.108-0.302,0.141c-1.389,0.149-2.532,1.057-3.91,1.214
			c-1.013,0.114-2.041,0.398-3.001-0.22c-0.618-0.698-1.482-1.137-2.037-1.91c-0.261-0.776-0.514-1.555-0.626-2.37
			c-0.115-0.503-0.056-0.948,0.097-1.477c0.268-0.92,0.328-1.854-0.235-2.852c-0.566-1.002-1.095-2.067-1.504-3.163
			c-0.06-0.101-0.119-0.203-0.171-0.307c-0.104-1.303,0.268-2.566,0.342-3.854c0.022-0.11,0.045-0.22,0.067-0.331
			c0.283-1.17,0.983-2.301,0.492-3.556c-0.395-0.998-0.633-2.028-0.849-3.07c-0.041-0.099-0.082-0.203-0.123-0.307
			c-0.048-1.464-0.346-2.858-1.195-4.092c-0.059-0.104-0.104-0.209-0.138-0.322c-0.432-2.05-0.946-4.219-0.339-6.184
			c0.693-2.245,0.261-4.442,0.499-6.642c0.1-0.933-0.577-1.709-0.41-2.627c0.007-0.11,0.022-0.222,0.048-0.33
			c0.406-1.369,1.46-2.4,1.94-3.735c0.052-0.083,0.104-0.167,0.16-0.247c0.562-0.762,0.726-1.715,1.207-2.514
			c0.041-0.091,0.078-0.182,0.116-0.272c0.559-1.354,1.326-2.638,1.497-4.134c0.246-0.406,0.432-0.838,0.559-1.296
			c0.134-1.072,0.67-2.056,0.715-3.151c0-0.098,0-0.19,0-0.287c0.231-1.53-0.469-2.811-1.08-4.118
			c-0.116-0.341-0.283-0.654-0.488-0.95c-0.495-0.758-0.636-1.652-0.972-2.473c-0.045-0.101-0.078-0.201-0.112-0.305
			c-0.358-1.214-0.849-2.398-0.678-3.707c0-0.11,0-0.222,0-0.329c0.198-2.445,1.006-4.787,1.266-7.211
			c0.182-1.769,0.313-3.56,0.175-5.351c-0.071-0.896-0.775-1.162-1.434-1.478c-0.097-0.043-0.198-0.091-0.294-0.14
			c-1.128-0.68-2.454-0.654-3.668-1.035c-0.417-0.129-0.875-0.063-1.251-0.406c-0.369-0.335-0.57,0.278-0.909,0.257
			c-0.13-0.002-0.253-0.034-0.372-0.089c-1.292-0.231-0.968-1.605-2.272-1.797c-3.374-0.495-6.774-0.462-10.17-0.423
			c-0.477,0.003-0.983,0.035-1.367-0.358c-0.198-0.197-0.484-0.24-0.678-0.132c-0.89,0.49-1.754,0.024-2.622-0.013
			c-0.112-0.03-0.22-0.069-0.328-0.114c-1.512-0.45-2.942-1.026-3.851-2.441c-1.005-1.039-1.865-2.197-2.823-3.273
			c-0.883-1.186-1.653-2.463-2.704-3.523c-0.067-0.071-0.13-0.141-0.194-0.22c-0.216-0.553-0.722-0.946-0.648-1.683
			c0.052-0.533-0.886-0.927-1.501-0.7c-0.712,0.264-1.404,0.549-1.978,1.11c-0.901,0.88-1.501,0.91-2.704,0.279
			c-0.715-0.838-1.415-1.698-2.465-2.147c-0.979-0.361-0.86-1.467-1.43-2.117c-0.178-0.212,0.145-0.559,0.38-0.769
			c0.082-0.063,0.168-0.129,0.253-0.192c1.318-0.81,2.305-1.94,3.083-3.268c0.052-0.082,0.101-0.164,0.153-0.246
			c0.786-1.644,1.426-3.363,2.357-4.94c0.201-0.283,0.365-0.588,0.484-0.916c0.339-0.843,0.76-1.65,1.207-2.441
			c0.183-0.238,0.331-0.493,0.424-0.776c0.667-1.616-0.201-2.022,0.544-3.597c0.253-0.527,0.398-1.095,0.685-1.605
			c0.045-0.114,0.123-0.186,0.209-0.248c0.782-1.677,2.067-2.879,3.523-3.972c0.551-0.417,0.819-1.186,1.4-1.646
			c0.864-0.892,1.795-1.719,2.532-2.726c0.767-0.845,1.705-1.458,2.703-1.989c0.276-0.141,0.507-0.348,0.734-0.549
			c2.037-1.221,4.271-1.991,6.461-2.866c0.085-0.041,0.178-0.082,0.268-0.123c0.842-0.391,1.832-0.566,2.249-1.588
			c0.127-0.313,0.525-0.415,0.805-0.605c0.082-0.056,0.164-0.112,0.242-0.167c1.024-0.851,2.29-1.301,3.415-1.981
			c0.082-0.052,0.164-0.1,0.253-0.153c0.887-0.298,1.602-0.935,2.499-1.251c0.808-0.283,0.868-0.808,0.294-1.438
			c-0.276-0.307-0.596-0.577-0.894-0.866c-0.711-0.685-1.24-1.376-0.648-2.449c0.164-0.309,0.253-0.791-0.019-1.199
			c-0.216-0.324-0.078-0.67,0.034-1.002c0.339-0.981,1.199-1.661,1.527-2.649c0.03-0.099,0.071-0.196,0.104-0.294
			c0.242-1.166,0.7-2.277,0.909-3.452c0.611-0.68,1.467-0.667,2.268-0.821c1.333-0.386,2.789,0.231,2.045,0.096
			c-0.104-0.039-3.389-1.413-5.109-1.493c-0.372-0.017-0.719-0.212-0.968-0.523c-0.059-0.091-0.112-0.186-0.164-0.281
			c-0.32-0.514-0.376-1.08-0.368-1.674c0.011-0.988,0.03-1.985-0.406-2.91c-0.071-0.065-0.134-0.134-0.201-0.194
			c-0.294-0.216-0.611-0.186-0.938-0.101c-0.998,0.363-2.033,0.555-3.076,0.73c-1.192,0.348-2.383,0.674-3.642,0.333
			c-0.73-0.315-1.333-0.866-2.063-1.186c-0.599-0.356-1.325-0.501-1.787-1.091c-0.164-0.225-0.35-0.435-0.521-0.659
			c-0.562-0.624-0.242-1.434-0.455-2.128c0.004-0.114,0.037-0.222,0.082-0.318c0.194-0.285,0.28-0.616,0.391-0.913
			c-0.008,0.082-0.034,0.132-0.078,0.185c-0.104,0.603-0.656,0.918-0.875,1.435c-0.034,0.088-0.063,0.175-0.097,0.268
			c-0.242,0.644-0.086,1.221,0.279,1.774c0.365,0.551,0.678,1.13,0.901,1.756c0.09,0.231,0.209,0.447,0.358,0.646
			c0.302,0.395,0.722,0.521,1.195,0.53c0.384,0.008,0.771,0.045,1.143,0c1.754-0.212,2.908,0.624,3.713,2.084
			c0.108,0.19,0.216,0.374,0.331,0.557c0.544,1.398-0.246,3.258-1.609,3.867c-1.869,0.84-3.631,1.89-5.451,2.836
			c-0.398,0.203-0.834,0.313-1.244,0.486c-1.289,0.53-2.569,0.696-3.866,0.052c-0.909-0.108-1.679-0.598-2.487-0.966
			c-0.849-0.38-1.653-0.387-2.532-0.212c-1.489,0.302-2.86,1.039-4.394,1.175c-1.505,0.136-2.905,0.717-4.35,1.072
			c-0.968,0.236-2.003,0.145-2.927,0.613c-0.09,0.045-0.194,0.085-0.287,0.13c-2.469,0.522-4.718,1.698-7.124,2.413
			c-0.093,0.03-0.186,0.06-0.276,0.09c-0.663,0.32-1.385,0.493-2.018,0.88c-0.313,0.267-0.625,0.524-0.953,0.767
			c-1.355,0.873-2.286,2.244-3.653,3.111c-0.897,0.665-1.814,1.311-2.469,2.244c-0.618,0.382-1.17,0.871-1.825,1.208
			c-0.503,0.236-0.924,0.581-1.319,0.968c-1.184,1.043-2.618,1.67-3.996,2.396c-0.73,0.33-1.173,0.929-1.538,1.607
			c-0.596,0.834-1.229,1.646-1.717,2.556c-0.525,0.386-0.849,0.933-1.166,1.465c-0.037,0.339,0.361,0.235,0.466,0.43
			c0.845,0.715,1.389,1.652,1.922,2.598c0.227,0.975-0.432,1.705-0.726,2.536c-0.112,0.316-0.398,0.574-0.261,0.957
			c0.328,0.739,0.868,1.203,1.668,1.352c1.099,0.277,1.653,1.165,2.279,1.983c0.067,0.1,0.13,0.203,0.182,0.311
			c0.145,0.477,0.127,0.966,0.041,1.447c-0.145,0.793-0.596,1.348-1.423,1.426c-1.065,0.101-2.16,0.192-3.173-0.292
			c-0.715-0.339-1.363,0.167-2.041,0.099c-1.125-0.436-1.289-0.86-0.882-2.421c-0.6,0.333-1.061,0.855-1.743,0.754
			c-0.667-0.1-1.046-0.65-1.545-1.007c-0.425-0.659-1.255-0.771-1.769-1.32c-0.041-0.084-0.086-0.171-0.127-0.263
			c-0.156-1.11,0.797-1.38,1.438-1.882c-0.503,0.395-1.117,0.631-1.568,1.132c-0.339,0.382-0.827,0.246-1.244,0.019
			c-0.085-0.069-0.164-0.143-0.238-0.22c-0.636-0.713-0.383-1.555-0.342-2.363c0.063-1.314,0.752-2.491,0.868-3.795
			c0.026-0.104,0.063-0.205,0.108-0.296c0.223-0.546,0.275-1.05-0.209-1.514c-0.373-0.36-0.704-0.477-1.17-0.138
			c-0.611,0.447-1.236,0.874-1.791,1.387c-1.255,0.868-1.925,2.206-2.774,3.409c-0.652,0.975-1.233,1.992-1.87,2.979
			c-0.499,0.598-0.678,1.391-1.173,1.989c-0.614,1.223-1.102,2.502-1.702,3.735c-0.052,0.072-0.104,0.151-0.141,0.236
			c-0.197,0.495-0.529,0.924-0.804,1.555c0.331-0.367,0.439-0.685,0.566-0.994c0.052-0.08,0.086-0.173,0.112-0.265
			c0.555-0.942,0.871-2.039,1.758-2.78c1.571-1.795,3.02-3.733,5.176-4.929c0.611-0.236,1.072,0.272,1.139,0.605
			c0.168,0.879,0.506,1.777,0.253,2.696c-0.328,1.169-0.946,2.204-1.571,3.23c-0.041,0.103-0.089,0.205-0.134,0.307
			c-0.592,1.181-1.281,2.303-2.171,3.292c-0.644,0.715-1.017,1.581-1.262,2.473c-0.402,1.441-1.054,2.773-1.691,4.104
			c-0.477,1.007-1.199,1.871-2.26,2.361c-0.085,0.048-0.171,0.088-0.249,0.143c-1.132,0.568-2.204,1.197-2.759,2.467
			c0.417-1.495,2.052-1.395,2.905-2.354c0.287-0.322,0.92-0.229,1.355,0.108c0.283,0.307,0.533,0.639,0.823,0.937
			c1.944,2.007,3.061,4.359,2.957,7.212c0.231-0.045,0.294-0.223,0.406-0.339c0.063-0.082,0.123-0.16,0.183-0.238
			c0.737-0.784,1.467-1.583,2.439-2.102c0.086-0.061,0.175-0.121,0.264-0.173c1.427-0.922,2.901-1.732,4.502-2.303
			c0.816-0.287,1.62-0.57,2.499-0.274c0.231,0.082,0.499,0.026,0.678-0.16c1.099-1.115,2.551-1.542,3.955-2.067
			c0.555-0.175,1.099-0.368,1.631-0.588c0.968-0.304,1.922-0.708,2.972-0.592c0.868-0.006,1.735,0.052,2.591-0.008
			c1.937-0.138,3.672,0.389,5.236,1.505c0.454,0.322,0.961,0.549,1.486,0.709c0.097,0.043,0.198,0.087,0.287,0.138
			c0.641,0.322,1.318,0.512,2.004,0.691c0.097,0.034,0.201,0.071,0.298,0.108c1.881,0.328,3.776,0.598,5.593,1.199
			c0.994,0.901,2.085,1.695,3.076,2.6c0.696,0.503,1.452,0.918,2.082,1.516c0.078,0.052,0.153,0.104,0.235,0.156
			c0.618,0.482,1.407,0.726,1.951,1.318c0.704,0.769,1.613,1.247,2.48,1.787c1.125,0.661,1.899,1.793,3.098,2.354
			c0.358,0.358,0.752,0.668,1.184,0.925c0.73,0.46,1.4,1.015,2.145,1.458c0.085,0.047,0.164,0.093,0.246,0.138
			c0.559,0.216,1.11,0.464,1.646,0.734c0.089,0.039,0.178,0.076,0.264,0.112c1.329,0.406,2.551,1.041,3.809,1.605
			c0.097,0.039,0.19,0.078,0.287,0.117c2.86,1.132,5.646,2.432,8.531,3.514c0.35,0.132,0.659,0.374,0.946,0.623
			c0.398,0.38,0.819,0.725,1.258,1.048c1.527,0.993,2.558,2.302,2.689,4.186c0.09,0.737,0.361,1.493-0.291,2.137
			c-0.112,0.116-0.127,0.362-0.033,0.49c0.428,0.609,0.138,1.173-0.06,1.746c-0.041,0.102-0.078,0.207-0.115,0.309
			c-0.469,1.64-1.054,3.244-1.653,4.839c-0.537,0.998-1.162,1.944-1.646,2.96c-0.99,1.465-0.99,3.238-1.519,4.849
			c-0.022,0.097-0.045,0.194-0.074,0.289c-0.484,1.335-0.283,2.64,0.193,3.919c0.231,0.617,0.335,1.264,0.548,1.883
			c0.048,0.104,0.089,0.209,0.123,0.316c0.417,2.046,0.32,4.085-0.06,6.122c-0.045,0.095-0.097,0.192-0.141,0.283
			c-0.246,0.702-0.76,1.227-1.177,1.821c-0.469,0.933-1.266,1.652-1.717,2.598c-0.607,0.916-1.106,1.88-1.285,2.985
			c-0.03,0.095-0.052,0.194-0.082,0.291c-0.559,2.111-1.989,3.707-3.27,5.383c-0.484,0.629-1.073,1.19-1.691,1.698
			c-1.002,0.838-1.534,1.953-1.981,3.13c-1.043,2.772-1.743,5.662-2.733,8.455c-0.104,0.291-0.164,0.599-0.238,0.905
			c-0.484,1.84-1.266,3.596-1.579,5.489c-0.324,0.564-0.469,1.19-0.585,1.823c-0.562,2.098-0.949,4.236-1.382,6.37
			c-0.097,0.473-0.473,0.774-0.596,1.275c-0.495,2.015,0.242,3.694,1.233,5.337c0.078,0.074,0.153,0.153,0.235,0.222
			c2.238,1.179,4.692,1.298,7.005,0.763c1.37-0.32,2.73-0.572,4.111-0.758c0.112-0.02,0.227-0.043,0.331-0.061
			c1.393-0.249,2.834-0.104,4.197-0.57c0.104-0.045,0.208-0.084,0.313-0.129c1.456-0.527,2.834-1.287,4.29-1.769
			c1.478-0.492,3.091-0.631,4.592,0.153c0.298,0.154,0.681,0.229,0.89,0.026c0.517-0.519,1.232-0.397,1.814-0.676
			c0.112-0.047,0.223-0.084,0.339-0.119c1.203-0.391,2.41-0.49,3.65-0.195c0.123,0.035,0.242,0.078,0.365,0.125
			c0.718,0.344,1.165,0.935,1.046,1.705c-0.198,1.252-0.469,2.49-0.291,3.765c-0.745,1.24-1.977,2.047-2.86,3.167
			c-0.447,0.525-1.08,0.844-1.557,1.343c-0.059,0.069-0.134,0.138-0.197,0.205c-1.509,0.946-2.674,2.303-4.07,3.381
			c-0.198,0.173-0.373,0.359-0.544,0.549c-1.743,0.75-3.419,1.618-5.146,2.391c-0.086,0.052-0.171,0.102-0.257,0.154
			c-2.097,1.128-4.241,2.143-6.498,2.918c-1.195,0.412-1.996,1.477-3.001,2.21c-0.253,0.185-0.466,0.425-0.76,0.54
			c-0.09,0.047-0.175,0.093-0.261,0.138c-0.574,0.32-1.154,0.607-1.724,0.929c-0.35,0.199-0.756,0.408-1.181,0.229
			c-0.536-0.222-0.648,0.287-0.842,0.516c-0.261,0.307-0.03,0.65,0.223,0.911c0.365,0.376,0.909,0.488,1.296,0.834
			c0.078,0.054,0.156,0.112,0.238,0.167c1.322,0.724,2.484,1.67,3.679,2.567c0.078,0.065,0.149,0.13,0.216,0.196
			c0.998,0.816,2.1,1.495,3.121,2.279c1.207,0.91,2.51,1.359,4.022,0.882c0.998,0.037,2-0.121,2.972-0.234
			c0.726-0.084,1.415-0.479,2.182-0.13c0.246-0.599,0.774-0.907,1.311-1.194c0.078-0.056,0.167-0.11,0.253-0.164
			c1.69-0.996,2.923-2.449,4.033-4.029c0.145-0.14,0.279-0.287,0.413-0.441c0.588-0.767,1.154-1.564,2.048-2.024
			c0.089-0.047,0.179-0.095,0.268-0.145c1.527-0.893,3.225-1.45,4.714-2.418c0.093-0.058,0.179-0.11,0.272-0.156
			c0.704-0.294,1.467-0.365,2.164-0.546c0.774-0.196,1.56-0.616,2.357-0.911c0.979-0.357,1.966-0.665,2.938-1.037
			c0.104-0.048,0.201-0.084,0.313-0.115c1.24-0.41,2.51-0.575,3.817-0.486c0.536,0,1.072,0,1.605,0
			c1.914-0.015,3.754,0.618,5.683,0.455c0.856-0.073,1.735,0.003,2.603-0.019c2.462-0.067,4.912-0.063,7.344,0.443
			c2.45,0.51,4.871,0.104,7.288-0.291c0.112-0.026,0.22-0.052,0.328-0.078c0.924-0.233,1.84-0.508,2.778-0.674
			c0.104-0.041,0.198-0.08,0.298-0.119c1.177-0.398,2.357-0.734,3.612-0.67c0.104,0.015,0.209,0.056,0.309,0.045
			c2.93-0.313,4.453,1.605,5.854,3.702c0.518,0.784,1.028,1.572,1.91,2c1.825,0.741,3.884,0.821,5.571,1.955
			c0.104,0.045,0.205,0.089,0.305,0.132c1.188,0.307,1.195,1.363,1.27,2.236c0.082,0.901,0.194,1.783,0.406,2.655
			c0,0.104-0.011,0.209-0.037,0.313c-0.056,1.214,1.151-1.253,1.706-2.145c0.07-0.075,0.141-0.149,0.212-0.222
			c1.229-1.231,2.406-2.53,4.085-3.188c0.484-0.173,1.006-0.039,1.385,0.155c0.804,0.404,1.352,0.668,0.76,1.798
			c-0.048,0.092-0.108,0.175-0.179,0.261c-0.052,0.026-0.097,0.059-0.134,0.106c0.022-0.043,0.071-0.05,0.116-0.08
			c0.067-0.071,0.127-0.13,0.197-0.197c1.11-0.51,1.951-1.406,2.968-2.048c0.417-0.181,0.805-0.408,1.11-0.754
			c1.263-1.138,2.633-2.154,3.94-3.238c0.067-0.067,0.134-0.134,0.208-0.201c0.596-0.559,1.289-1.002,1.918-1.529
			c0.082-0.065,0.167-0.125,0.253-0.185c0.734-0.676,1.597-0.931,2.577-0.83c0.503,0,0.949-0.16,1.288-0.555
			c1.27-1.285,2.484-2.625,4.253-3.268c0.089-0.06,0.179-0.119,0.268-0.184c1.3-1.186,1.348-1.194,2.424-0.35
			c0.056,0.171-0.011,0.309-0.123,0.435c-0.678,0.665,0.7-0.663,1.303-0.255c0.373,0.363,0.168,0.676-0.078,0.987
			c-0.845,1.067-1.706,2.121-2.662,3.081c-1.006,1.013-2.071,1.952-2.857,3.169c-0.268,0.421-3.106,2.901-4.167,3.858
			c-2.659,2.402-5.433,4.774-8.334,6.886c-2.622,1.91-5.265,3.514-8.01,5.228c-4.267,2.659-9.012,4.841-13.596,6.87
			c-3.366,1.495-7.079,2.853-10.624,3.88c-5.109,1.478-10.215,2.944-15.525,3.605c-1.311,0.164-2.756,0.445-4.066,0.572
			c-4.886,0.54-9.541,1.037-14.601,0.827c-6.401-0.056-9.165-0.378-13.149-0.853c-3.582-0.185-6.826-1.931-10.241-2.795
			c-0.097-0.047-0.194-0.075-0.294-0.106c-1.207-0.408-2.35-0.962-3.467-1.566c-0.119-0.093-0.238-0.188-0.357-0.278
			c-0.723-0.601-1.597-0.953-2.368-1.471c-0.086-0.043-0.171-0.089-0.253-0.136c-0.618-0.337-1.169-0.792-1.795-1.112
			c-0.089-0.043-0.171-0.088-0.253-0.129c-0.752-0.363-1.359-0.905-1.944-1.484c-1.043-0.706-1.958-1.562-2.908-2.374
			c-0.599-0.495-1.128-1.061-1.754-1.528c-0.104-0.103-0.209-0.205-0.32-0.305c-1.102-1.158-2.041-2.46-3.087-3.674
			c-0.607-1.218-1.523-2.201-2.394-3.216c-0.618-0.683-1.11-1.383-1.489-2.286c-0.305-0.718-1.05-1.396-1.46-2.195
			c-0.045-0.088-0.096-0.172-0.149-0.261c-0.737-1.482-0.949-3.141-1.557-4.668c-0.313-0.836-1.095-1.208-1.709-1.739
			c-1.717-1.383-3.243-2.96-4.718-4.59c-0.353-0.503-0.767-0.955-1.207-1.382c-1.344-1.761-2.748-3.478-3.925-5.359
			c-0.395-0.827-0.92-1.553-1.59-2.184c-0.469-0.643-0.942-1.285-1.433-1.909c-0.566-0.898-0.924-1.918-1.661-2.702
			c-0.477-0.706-1.057-1.352-1.277-2.208c-0.466-1.03-1.099-1.957-1.754-2.875c-1.169-1.421-1.471-3.268-2.331-4.836
			c-1.214-2.201-1.542-4.703-2.473-6.995c-0.596-2.542-1.646-4.94-2.383-7.437c-0.104-0.313-0.294-0.581-0.454-0.862
			c-0.924-2.596-1.489-5.299-2.413-7.893c-0.045-0.088-0.078-0.185-0.116-0.28c-0.145-0.657-0.555-1.221-0.652-1.894
			c-0.041-0.087-0.074-0.175-0.112-0.26c-0.398-0.601-0.555-1.309-0.856-1.952c-0.052-0.078-0.104-0.16-0.164-0.238
			c-0.439-0.871-1.095-1.573-1.754-2.277c-0.328-0.581-0.749-1.061-1.385-1.318c-0.633-0.352-1.255-0.736-1.948-0.981
			c-1.526-0.544-2.636-1.637-3.694-2.8c-0.067-0.073-0.141-0.149-0.205-0.223c-1.467-1.46-2.558-3.139-3.244-5.109
			c-0.678-1.944-1.944-3.612-2.733-5.513c-0.238-0.577-0.51-1.141-0.76-1.718c-0.037-0.104-0.078-0.205-0.123-0.307
			c-0.518-1.184-0.987-2.471-1.065-3.678c-0.086-1.245-0.935-2.078-1.062-3.212c-0.127-1.175-0.398-2.32-0.685-3.472
			c-0.328-1.337-0.763-2.715-0.685-4.078c0.052-0.959-0.242-1.83-0.231-2.72c0.015-1.618,0.242-3.208,0.763-4.815
			c0.432-1.324,0.801-2.888-0.011-4.428c-0.562-1.078-0.484-2.437-0.98-3.599c-0.495-0.927-1.255-1.59-2.152-2.108
			c-1.136-1.02-2.234-0.98-3.378,0.03c-0.38,0.333-0.897,0.255-1.355,0.039c-0.09-0.069-0.164-0.143-0.235-0.229
			c-0.522-0.989-0.242-2.056-0.086-3.02c0.138-0.834,0.216-1.708,0.484-2.527c0.254-0.996,0.712-1.933,0.827-2.963
			c0.362-1.528,0.619-3.098,1.207-4.55c16.601-41.207,50.607-58.46,52.291-59.294c4.543-2.268,9.109-4.493,13.928-6.154
			c5.668-1.953,11.417-3.536,17.301-4.699c3.538-0.702,7.098-1.415,10.676-1.586C496.507,196.12,523.171,193.558,547.309,202.579z"
			/>
		<path fill-rule="evenodd" clip-rule="evenodd" fill="#439E55" d="M553.386,346.878c0.145-0.22,0.294-0.442,0.44-0.661
			c0.596-0.942,0.894-2.059,1.664-2.906l-0.022,0.024c0.417-1.244,1.564-1.438,2.585-1.603c1.557-0.251,3.009-0.836,4.543-1.136
			l-0.026,0.017c1.795-1.097,2.916-2.609,3.057-4.778c0.037-0.585,1.434-1.173,2.167-0.907c0.417,0.154,0.857,0.262,1.266,0.45
			c0.342,0.419,0.696,0.84,1.046,1.261c0.406,0.534,0.883,0.529,1.277,0.054c0.421-0.516,0.924-1.007,1.02-1.726
			c0.636-0.693,1.024-1.519,1.311-2.396c0.562-0.976,0.927-2.039,1.411-3.052l-0.015,0.026c0.302-1.296,1.385-1.933,2.29-2.718
			c0.424-0.142,0.849-0.289,1.274-0.43c1.426-0.855,2.942-1.475,4.614-1.68l-0.037,0.013c0.339-0.374,0.786-0.087,1.162-0.177
			c1.791-0.436,3.627-0.617,5.407-1.138c2.83-0.834,5.627-1.791,8.435-2.675c1.303-0.406,2.029-0.011,2.681,1.15
			c0.853,1.525,0.875,3.098,0.506,4.733l0.015-0.028c-0.198,0.568-0.224,1.134-0.153,1.739c0.197,1.638-0.421,3.162-0.76,4.72
			c-0.398,1.811-0.834,3.627-1.363,5.394c-0.656,2.16-0.897,4.398-1.497,6.561l0.011-0.026c-0.763,1.782-0.391,3.677-0.555,5.52
			c-0.238,2.624-0.272,5.288-1.121,7.831c-0.041,0.907-0.402,1.721-0.774,2.527c-0.574,0.807-1.046,1.674-1.531,2.532l0.011-0.021
			c-1.494,1.726-3.195,3.249-4.782,4.888c-0.424,0.445-0.99,0.259-1.467,0.344c-1.985,0.363-3.899,0.043-5.66-0.987
			c-0.279-0.158-0.469-0.408-0.629-0.681c-0.145-0.074-0.287-0.147-0.428-0.218c-0.719-0.953-1.668-1.322-2.838-1.143
			c-1.475,0.229-2.692-0.38-3.862-1.155l0.026,0.017c-1.155-0.637-2.357-0.771-3.609-0.337c-1.155-0.1-2.142,0.216-3.076,0.961
			c-0.767,0.611-1.765,0.858-2.741,1.05l0.026-0.017c-0.734,0.356-1.478,0.694-2.305,0.806c-0.272,0.218-0.544,0.436-0.815,0.652
			c-0.63,0.583-0.767,1.465-1.289,2.109l0.018-0.022c-0.525,0.603-1.061,1.197-1.575,1.806c-0.54,0.725-1.028,1.501-1.788,2.033
			c-1.411,0.205-2.804,0.363-3.754-1.057c-0.51-1.354,0.082-2.486,0.685-3.636c0.186-0.358,0.544-0.386,0.786-0.613l-0.026,0.021
			c0.577-0.65,0.428-1.015-0.413-1.227c-0.346-0.084-0.745-0.153-1.017-0.449c-0.547-0.328-0.815-0.994-1.467-1.194
			c-0.696-0.452-1.4-0.337-2.115-0.05l0.03-0.015c-0.931,0.35-1.732,0.246-2.324-0.633l0.015,0.022
			c-0.272-1.173-0.123-2.297,0.354-3.402c0.16-0.371,0.264-0.773,0.279-1.188c0.141-0.575,0.283-1.149,0.424-1.722
			c0.555-1.119,0.629-2.376,1.065-3.534c0.287-0.758,0.629-1.503,0.8-2.302l-0.015,0.023c0.551-0.707,1.177-1.341,1.892-1.888
			c0.168-0.276,0.339-0.549,0.51-0.827c0.514-0.473,0.41-1.121,0.499-1.722C553.208,347.684,553.092,347.239,553.386,346.878z"/>
	</g>
	<g id="shell">
		<path fill-rule="evenodd" clip-rule="evenodd" fill="#9CC2A6" d="M661.727,280.332c16.525,27.67,17.208,30.288,30.886,59.234
			c-16.808-25.513-19.681-25.205-36.641-50.951C657.683,286.154,659.582,283.417,661.727,280.332z"/>
		<path fill-rule="evenodd" clip-rule="evenodd" fill="#9CC2A6" d="M654.857,318.824c-1.411-1.3-2.236-2.357-1.659-4.549
			c0.68-2.58,0.585-5.368,0.827-8.064c0.322-0.225,0.646-0.447,0.968-0.67c16.111,19.21,16.469,19.226,32.58,38.438
			c-0.326,0.296-1.031,0.793-1.031,0.793S666.555,329.597,654.857,318.824z"/>
		<path fill-rule="evenodd" clip-rule="evenodd" fill="#9CC2A6" d="M699.756,366.966c-0.523-0.492-1.013-1.004-1.579-1.475
			c-4.34-3.608-8.701-7.207-13.043-10.818c-0.255-0.211-0.596-0.512-0.557-0.715c0.141-0.73,1.285-3.536,1.517-4.251
			c0.112-0.041,0.222-0.083,0.331-0.127c4.86,5.044,9.587,10.138,14.447,15.181C700.743,364.81,699.886,366.918,699.756,366.966z"/>
		<path fill-rule="evenodd" clip-rule="evenodd" fill="#9CC2A6" d="M699.782,334.868c-12.794-32.634-14.892-32.02-27.73-64.766
			c3.096-1.668,6.223-3.351,10.215-5.498c9.809,34.569,8.844,35.63,18.577,69.938C700.491,334.65,700.135,334.76,699.782,334.868z"
			/>
		<path fill-rule="evenodd" clip-rule="evenodd" fill="#9CC2A6" d="M709.492,332.033c-5.785-36.349-7.636-35.507-13.445-72.007
			c3.755-0.542,7.606-1.1,12.278-1.774c2.093,36.861,0.261,36.665,2.363,73.664C710.289,331.954,709.89,331.993,709.492,332.033z"/>
		<path fill-rule="evenodd" clip-rule="evenodd" fill="#9CC2A6" d="M768.875,280.747c2.501,3.791,4.338,6.573,6.085,9.222
			c-16.894,25.157-19.392,26.071-36.315,51.269c-0.279-0.145-0.559-0.294-0.838-0.441
			C752.838,312.929,753.449,309.343,768.875,280.747z"/>
		<path fill-rule="evenodd" clip-rule="evenodd" fill="#9CC2A6" d="M721.209,333.846c-0.398-0.037-0.797-0.075-1.195-0.11
			c2.359-36.93,0.918-38.466,3.281-75.45c4.189,0.689,8.036,1.32,12.231,2.009C729.471,296.697,727.242,297.572,721.209,333.846z"/>
		<path fill-rule="evenodd" clip-rule="evenodd" fill="#9CC2A6" d="M728.981,335.764c9.96-34.234,10.183-36.161,20.23-70.691
			c3.871,2.158,6.994,3.899,10.133,5.649c-13.015,32.521-16.312,32.783-29.346,65.354
			C729.657,335.973,729.32,335.868,728.981,335.764z"/>
		<path fill-rule="evenodd" clip-rule="evenodd" fill="#9CC2A6" d="M745.081,354.674c-4.342,3.61-8.703,7.209-13.043,10.818
			c-0.566,0.471-1.056,0.983-1.579,1.475c-0.13-0.048-1.571-1.759-1.702-1.808c4.86-5.042,9.717-10.088,14.577-15.132
			c0.11,0.043,0.22,0.086,0.331,0.127c0.233,0.715,1.83,3.076,1.972,3.806C745.677,354.162,745.336,354.463,745.081,354.674z"/>
		<path fill-rule="evenodd" clip-rule="evenodd" fill="#9CC2A6" d="M775.541,320.568c-13.941,12.773-30.491,25.068-30.491,25.068
			s-1.237-0.689-1.583-0.996c16.052-18.694,16.132-18.757,32.184-37.451c0.296,0.261,0.592,0.522,0.888,0.782
			c0.335,3.286,0.83,6.567,0.901,9.859C777.461,318.737,776.358,319.818,775.541,320.568z"/>
	</g>
</g>
<rect x="-129.266" y="621.967" fill="none" width="1274" height="222"/>
<text transform="matrix(1 0 0 1 17.5221 678.1772)"><tspan x="0" y="0" fill="#484C51" font-family="'Raleway-Regular'" font-size="77">The Paleobiology Database</tspan><tspan x="213.135" y="58" fill="#787878" font-family="'OpenSans-Light'" font-size="47">revealing the history of life</tspan></text>
</svg>
